<?xml version="1.0" encoding="utf-8"?>
<!-- Generator: Adobe Illustrator 26.0.1, SVG Export Plug-In . SVG Version: 6.00 Build 0)  -->
<svg version="1.1" id="Layer_1" xmlns="http://www.w3.org/2000/svg" xmlns:xlink="http://www.w3.org/1999/xlink" x="0px" y="0px"
	 viewBox="0 0 80 80" style="enable-background:new 0 0 80 80;" xml:space="preserve">
<style type="text/css">
	.st0{fill:#FFFFFF;}
</style>
<path class="st0" d="M36.8,60.5h5.1c0.7,0,1.3-0.6,1.3-1.3v-5.1c0-0.7-0.6-1.3-1.3-1.3h-5.1c-0.7,0-1.3,0.6-1.3,1.3v5.1
	C35.6,59.9,36.1,60.5,36.8,60.5z M38.1,55.4h2.5v2.5h-2.5V55.4z"/>
<path class="st0" d="M69.9,46.5c0.7,0,1.3-0.6,1.3-1.3V33.8c0-0.4-0.2-0.8-0.5-1l-4.6-3.4V16c0-0.7-0.6-1.3-1.3-1.3
	s-1.3,0.6-1.3,1.3v14c0,0.4,0.2,0.8,0.5,1l4.6,3.4v10.8C68.6,45.9,69.2,46.5,69.9,46.5z"/>
<path class="st0" d="M75.7,67l-3.2-2.2v-8.5c2-0.7,3-2.9,2.3-4.9s-2.9-3-4.9-2.3c-2,0.7-3,2.9-2.3,4.9c0.4,1.1,1.2,1.9,2.3,2.3v9.1
	c0,0.4,0.2,0.8,0.6,1.1l3.2,2.2v6.9H63.5c0.8-1.1,1.3-2.4,1.3-3.8V61.7c0-0.7-0.6-1.3-1.3-1.3c-0.7,0-1.3,0.6-1.3,1.3V63h-4.7
	L54,60.7c-0.2-0.1-0.5-0.2-0.7-0.2h-5.1v-2.5h10.2c0.5,0,1-0.4,1.2-0.9l1-2.9h1.6v2.5c0,0.7,0.6,1.3,1.3,1.3c0.7,0,1.3-0.6,1.3-1.3
	V38.9c0-3-2.1-5.6-5.1-6.2V22.3c0-6.6-3.2-12.7-8.5-16.5h5.5l3.4,3.4c0.2,0.2,0.6,0.4,0.9,0.4h4c0.7,2,2.9,3,4.9,2.3
	c2-0.7,3-2.9,2.3-4.9c-0.7-2-2.9-3-4.9-2.3C66.3,5.1,65.4,6,65,7.1h-3.5l-3.4-3.4c-0.2-0.2-0.6-0.4-0.9-0.4H46.4
	C40.2,1,33.2,1.8,27.8,5.6c-0.6,0.4-0.7,1.2-0.4,1.8c0.4,0.6,1.2,0.7,1.8,0.4c0,0,0,0,0,0c8.1-5.6,19.2-3.6,24.7,4.5
	c2.1,3,3.2,6.5,3.2,10.1h-5.1c0-7-5.7-12.7-12.7-12.7s-12.7,5.7-12.7,12.7v10.2h-5.1V30h1.3c0.7,0,1.3-0.6,1.3-1.3
	c0-0.7-0.6-1.3-1.3-1.3h-1.3v-2.5h1.3c0.7,0,1.3-0.6,1.3-1.3s-0.6-1.3-1.3-1.3h-1.3c0-4.2,1.5-8.2,4.2-11.4c0.5-0.5,0.4-1.3-0.2-1.8
	c-0.5-0.5-1.3-0.4-1.8,0.2l0,0c-2.5,3-4.1,6.7-4.6,10.5h-6.5c-0.7,0-1.3,0.6-1.3,1.3v8.3l-4.6,3.4c-0.3,0.2-0.5,0.6-0.5,1v7.9
	c-2,0.7-3,2.9-2.3,4.9s2.9,3,4.9,2.3c2-0.7,3-2.9,2.3-4.9c-0.4-1.1-1.2-1.9-2.3-2.3v-7.2l4.6-3.4c0.3-0.2,0.5-0.6,0.5-1v-7.6H19
	v10.3c-3,0.6-5.1,3.2-5.1,6.2v12.7c0,0.7,0.6,1.3,1.3,1.3c0.7,0,1.3-0.6,1.3-1.3v-1.3h8.4l2.2,2.2c0.2,0.2,0.6,0.4,0.9,0.4h2.5v2.5
	h-8.9c-0.3,0-0.7,0.1-0.9,0.4l-2.2,2.2h-2v-1.3c0-0.7-0.6-1.3-1.3-1.3c-0.7,0-1.3,0.6-1.3,1.3v15.3c0,3.5,2.8,6.4,6.4,6.4H75
	c0.7,0,1.3-0.6,1.3-1.3v-8.9C76.2,67.7,76,67.3,75.7,67z M71.1,51.6c0.7,0,1.3,0.6,1.3,1.3s-0.6,1.3-1.3,1.3c-0.7,0-1.3-0.6-1.3-1.3
	S70.4,51.6,71.1,51.6z M68.6,7.1c0.7,0,1.3,0.6,1.3,1.3s-0.6,1.3-1.3,1.3s-1.3-0.6-1.3-1.3S67.9,7.1,68.6,7.1z M7.6,46.5
	c-0.7,0-1.3-0.6-1.3-1.3s0.6-1.3,1.3-1.3s1.3,0.6,1.3,1.3S8.3,46.5,7.6,46.5z M53,63l3.5,2.3c0.2,0.1,0.5,0.2,0.7,0.2h5.1v6.4
	c0,1.6-1,3-2.5,3.6v-6.1c0-0.5-0.3-0.9-0.7-1.1L56.5,67c-0.6-0.3-1.4-0.1-1.7,0.6c-0.3,0.6-0.1,1.4,0.6,1.7l1.8,0.9v5.6h-2.5v-3.8
	c0-0.5-0.3-0.9-0.7-1.1l-1.8-0.9v-1.8c0-0.7-0.6-1.3-1.3-1.3s-1.3,0.6-1.3,1.3v2.5c0,0.5,0.3,0.9,0.7,1.1l1.8,0.9v3h-2.5v-1.3
	c0-0.4-0.2-0.8-0.6-1.1l-3.2-2.2v-5.7H47c0.7,0,1.3-0.6,1.3-1.3V63H53z M40.6,69.4v-3.8h2.5v6.4c0,0.4,0.2,0.8,0.6,1.1l3.2,2.2v0.6
	H36.8v-3.1l3.2-2.2C40.4,70.2,40.6,69.8,40.6,69.4z M59.7,51.6c-0.5,0-1,0.4-1.2,0.9l-1,2.9h-9.3v-2.5h6.4c0.5,0,0.9-0.3,1.1-0.7
	l2.2-4.4h4.3v3.8H59.7z M62,37.6h-3.6c-0.3,0-0.7,0.1-0.9,0.4l-3.8,3.8c-0.5,0.5-0.5,1.3,0,1.8c0.5,0.5,1.3,0.5,1.8,0c0,0,0,0,0,0
	l3.4-3.4h3.3v5.1h-5.1c-0.5,0-0.9,0.3-1.1,0.7l-2.2,4.4h-5.6V49c0-0.7-0.6-1.3-1.3-1.3h-1.3v-1.9l5.9-4.7c0.3-0.2,0.5-0.6,0.5-1V35
	h6.4C60,35.1,61.5,36.1,62,37.6z M57.2,24.9v2.5h-1.3c-0.7,0-1.3,0.6-1.3,1.3c0,0.7,0.6,1.3,1.3,1.3h1.3v2.5h-5.1v-7.6H57.2z
	 M39.4,12.2c5.6,0,10.2,4.6,10.2,10.2v10.2h-3.8c-0.7,0-1.3,0.6-1.3,1.3S45,35,45.7,35h3.8v4.5l-5.9,4.7c-0.3,0.2-0.5,0.6-0.5,1v2.5
	h-2.5v-6.4c0-0.5-0.4-1-0.9-1.2l-2.9-1V35h3.8c0.7,0,1.3-0.6,1.3-1.3s-0.6-1.3-1.3-1.3H29.2V22.3C29.2,16.7,33.8,12.2,39.4,12.2z
	 M35.6,47.8v-2.5c0-0.5-0.3-1-0.8-1.2l-5.6-2.2V35h5.1v5.1c0,0.5,0.4,1,0.9,1.2l2.9,1v5.4H35.6z M28.5,50.3l-2.2-2.2
	c-0.2-0.2-0.6-0.4-0.9-0.4h-8.9v-2.5h5.1c0.7,0,1.3-0.6,1.3-1.3s-0.6-1.3-1.3-1.3h-5.1v-3.8c0-2.1,1.7-3.8,3.8-3.8h1.3v1.8l-1.8,0.9
	c-0.6,0.3-0.9,1.1-0.6,1.7c0.3,0.6,1.1,0.9,1.7,0.6l0,0l2.5-1.3c0.4-0.2,0.7-0.7,0.7-1.1V35h2.5v7.6c0,0.5,0.3,1,0.8,1.2l5.6,2.2
	v1.7h-1.3c-0.7,0-1.3,0.6-1.3,1.3v1.3H28.5z M19,60.5c0.3,0,0.7-0.1,0.9-0.4l2.2-2.2h9.6c0.7,0,1.3-0.6,1.3-1.3v-6.4h12.7V63H33
	v-1.3c0-0.7-0.6-1.3-1.3-1.3h-3.8c-0.3,0-0.5,0.1-0.8,0.3l-4.7,3.6h-5.9v-3.8H19z M16.5,66.8h6.4c0.3,0,0.5-0.1,0.8-0.3l4.7-3.6h2.1
	v1.3c0,0.7,0.6,1.3,1.3,1.3H33v1.3h-5.1c-0.3,0-0.7,0.1-0.9,0.4l-3.4,3.4h-7.1V66.8z M16.7,73.2h7.4c0.3,0,0.7-0.1,0.9-0.4l3.4-3.4
	h5.8c0.7,0,1.3-0.6,1.3-1.3v-2.5h2.5v3.1l-3.2,2.2c-0.4,0.2-0.6,0.6-0.6,1.1v3.8h-3.8v-2.5c0-0.7-0.6-1.3-1.3-1.3s-1.3,0.6-1.3,1.3
	v2.5h-7.6C18.7,75.7,17.3,74.7,16.7,73.2z"/>
<path class="st0" d="M10.8,62l-3.2-2.2v-6.9c0-0.7-0.6-1.3-1.3-1.3S5,52.1,5,52.8v7.6c0,0.4,0.2,0.8,0.6,1.1l3.2,2.2V77
	c0,0.7,0.6,1.3,1.3,1.3c0.7,0,1.3-0.6,1.3-1.3V63C11.4,62.6,11.2,62.2,10.8,62z"/>
<path class="st0" d="M11.4,10.9h6.4c0.3,0,0.7-0.1,0.9-0.4l5.1-5.1c0.5-0.5,0.5-1.3,0-1.8c-0.5-0.5-1.3-0.5-1.8,0c0,0,0,0,0,0
	l-4.7,4.7h-5.8c-0.7,0-1.3,0.6-1.3,1.3S10.7,10.9,11.4,10.9z"/>
</svg>
