<?xml version="1.0" encoding="utf-8"?>
<!-- Generator: Adobe Illustrator 26.0.1, SVG Export Plug-In . SVG Version: 6.00 Build 0)  -->
<svg version="1.1" id="Layer_1" xmlns="http://www.w3.org/2000/svg" xmlns:xlink="http://www.w3.org/1999/xlink" x="0px" y="0px"
	 viewBox="0 0 85 82.5" style="enable-background:new 0 0 85 82.5;" xml:space="preserve">
<style type="text/css">
	.st0{fill:#FFFFFF;}
</style>
<g>
	<path class="st0" d="M53.7,22.3c-6.2-1.2-9.6-4.5-11.2-6.6c-1.6,2.1-5,5.4-11.2,6.6c-0.1,3.1,0.4,13.6,11.2,21.2
		C53.3,35.6,53.8,25.4,53.7,22.3z M43.8,31.3v3.8c0,0.7-0.6,1.3-1.3,1.3s-1.3-0.6-1.3-1.3v-3.8c-2-0.5-3.4-2.4-3.4-4.5
		c0-2.6,2.1-4.7,4.7-4.7c2.6,0,4.7,2.1,4.7,4.7C47.2,28.9,45.7,30.7,43.8,31.3z"/>
	<path class="st0" d="M71.9,27.1C75,12.5,58.4,2.3,47.7,12C44.4,5.7,37.9,1.5,30.6,1.5c-13.2,0-22.5,13.3-19.1,26.1
		c-4.1,1.5-7.1,5.7-7.1,10.7c0,6.3,4.9,11.4,10.9,11.4h54.4c6,0,10.9-5.1,10.9-11.4C80.6,32.8,76.9,28.2,71.9,27.1z M43.2,46
		c-0.2,0.2-0.5,0.2-0.7,0.2S42,46.1,41.8,46c-14.7-9.7-13-24.3-12.9-24.9s0.5-1,1.1-1.1c8.6-1.3,11.4-7.1,11.4-7.1
		c0.2-0.4,0.7-0.7,1.1-0.7c0.5,0,0.9,0.3,1.1,0.7c0.1,0.2,2.9,5.9,11.4,7.1c0.6,0.1,1,0.5,1.1,1.1C56.2,21.6,58,35.9,43.2,46z"/>
	<g>
		<path class="st0" d="M20.2,52.3v7.6c0,0.7-0.6,1.3-1.3,1.3H11v9.2c2.3,0.6,3.9,2.6,3.9,5c0,2.9-2.3,5.2-5.2,5.2s-5.2-2.3-5.2-5.2
			c0-2.4,1.7-4.5,3.9-5V59.9c0-0.7,0.6-1.3,1.3-1.3h7.9v-6.3C17.7,52.3,20.2,52.3,20.2,52.3z"/>
		<path class="st0" d="M49.8,75.3c0,2.9-2.3,5.2-5.2,5.2s-5.2-2.3-5.2-5.2c0-2.4,1.7-4.5,3.9-5v-2.7l-5.9-5.9
			c-0.2-0.2-0.4-0.6-0.4-0.9v-8.5h2.5v8l5.9,5.9c0.2,0.2,0.4,0.6,0.4,0.9v3.2C48.1,70.9,49.8,72.9,49.8,75.3z"/>
		<path class="st0" d="M34.8,64c0,2.9-2.3,5.2-5.2,5.2s-5.2-2.3-5.2-5.2c0-2.4,1.7-4.5,3.9-5v-6.7h2.5V59
			C33.1,59.5,34.8,61.6,34.8,64z"/>
		<path class="st0" d="M61.4,61.3c0,2.9-2.3,5.2-5.2,5.2c-2.4,0-4.4-1.6-5-3.9h-3.7c-0.7,0-1.3-0.6-1.3-1.3v-9.2h2.5V60h2.4
			c0.5-2.3,2.6-4,5-4C59.1,56.1,61.4,58.5,61.4,61.3z"/>
		<path class="st0" d="M79.5,75.3c0,2.9-2.3,5.2-5.2,5.2c-2.9,0-5.2-2.3-5.2-5.2c0-2.4,1.7-4.5,3.9-5v-6.4h-7.3
			c-0.7,0-1.3-0.6-1.3-1.3V52.3H67v9.1h7.3c0.7,0,1.3,0.6,1.3,1.3v7.7C77.8,70.9,79.5,72.9,79.5,75.3z"/>
	</g>
</g>
</svg>
