<?xml version="1.0" encoding="utf-8"?>
<!-- Generator: Adobe Illustrator 26.0.1, SVG Export Plug-In . SVG Version: 6.00 Build 0)  -->
<svg version="1.1" id="Layer_1" xmlns="http://www.w3.org/2000/svg" xmlns:xlink="http://www.w3.org/1999/xlink" x="0px" y="0px"
	 viewBox="0 0 125 125" style="enable-background:new 0 0 125 125;" xml:space="preserve">
<style type="text/css">
	.st0{fill-rule:evenodd;clip-rule:evenodd;fill:#FFFFFF;}
</style>
<g>
	<g>
		<g>
			<path class="st0" d="M105.6,30.4H89.9c-0.7,0-1.3-0.6-1.3-1.3V13.4c0-0.7,0.6-1.3,1.3-1.3s1.3,0.6,1.3,1.3v14.4h14.4
				c0.7,0,1.3,0.6,1.3,1.3C106.9,29.8,106.4,30.4,105.6,30.4z"/>
		</g>
		<g>
			<path class="st0" d="M105.6,116.9H27c-0.7,0-1.3-0.6-1.3-1.3V13.4c0-0.7,0.6-1.3,1.3-1.3h62.9c0.3,0,0.7,0.1,0.9,0.4l15.7,15.7
				c0.2,0.2,0.4,0.6,0.4,0.9v86.5C106.9,116.3,106.4,116.9,105.6,116.9z M28.3,114.3h76V29.6l-15-15H28.2
				C28.3,14.7,28.3,114.3,28.3,114.3z"/>
		</g>
		<g>
			<g>
				<path class="st0" d="M64.3,90c-7.3,0-13.2-5.9-13.2-13.2c0-7.3,5.9-13.2,13.2-13.2s13.2,5.9,13.2,13.2
					C77.5,84.1,71.6,90,64.3,90z M64.3,66.3c-5.8,0-10.6,4.7-10.6,10.6c0,5.8,4.7,10.5,10.6,10.5c5.8,0,10.5-4.7,10.5-10.5
					C74.9,71,70.1,66.3,64.3,66.3z"/>
			</g>
			<g>
				<path class="st0" d="M64.3,84c-4,0-7.2-3.2-7.2-7.2s3.2-7.2,7.2-7.2s7.2,3.2,7.2,7.2S68.3,84,64.3,84z M64.3,72.3
					c-2.5,0-4.6,2-4.6,4.6c0,2.5,2,4.6,4.6,4.6c2.5,0,4.6-2,4.6-4.6S66.8,72.3,64.3,72.3z"/>
			</g>
			<g>
				<path class="st0" d="M68.4,105.1h-8.2c-0.7,0-1.2-0.5-1.3-1.2l-0.7-7c-1.3-0.4-2.5-0.9-3.7-1.5L49,99.8
					c-0.5,0.4-1.3,0.4-1.8-0.1l-5.8-5.8c-0.5-0.5-0.5-1.2-0.1-1.8l4.4-5.4c-0.6-1.2-1.2-2.4-1.5-3.7l-7-0.7C36.5,82.2,36,81.7,36,81
					v-8.2c0-0.7,0.5-1.2,1.2-1.3l7-0.7c0.4-1.3,0.9-2.5,1.5-3.7l-4.4-5.4c-0.4-0.5-0.4-1.3,0.1-1.8l5.8-5.8c0.5-0.5,1.2-0.5,1.8-0.1
					l5.4,4.4c1.2-0.6,2.4-1.1,3.7-1.5l0.7-7c0.1-0.7,0.6-1.2,1.3-1.2h8.2c0.7,0,1.2,0.5,1.3,1.2l0.7,7c1.3,0.4,2.5,0.9,3.7,1.5
					l5.4-4.4c0.5-0.4,1.3-0.4,1.8,0.1l5.8,5.8c0.5,0.5,0.5,1.2,0.1,1.8L82.8,67c0.6,1.2,1.1,2.4,1.5,3.7l7,0.7
					c0.7,0.1,1.2,0.6,1.2,1.3V81c0,0.7-0.5,1.2-1.2,1.3l-7,0.7c-0.4,1.3-0.9,2.5-1.5,3.7l4.4,5.4c0.4,0.5,0.4,1.3-0.1,1.8l-5.8,5.8
					c-0.5,0.5-1.2,0.5-1.8,0.1l-5.4-4.4c-1.2,0.6-2.4,1.2-3.7,1.5l-0.7,7C69.7,104.5,69.1,105.1,68.4,105.1z M61.4,102.4h5.9
					l0.7-6.7c0.1-0.5,0.4-1,1-1.1c1.6-0.4,3.2-1.1,4.7-2c0.5-0.3,1.1-0.2,1.5,0.1l5.2,4.2l4.2-4.2l-4.2-5.2c-0.3-0.4-0.4-1-0.1-1.5
					c0.9-1.5,1.5-3.1,2-4.7c0.1-0.5,0.6-0.9,1.1-1l6.7-0.7v-5.9L83.4,73c-0.5-0.1-1-0.4-1.1-1c-0.4-1.6-1.1-3.2-2-4.7
					c-0.3-0.5-0.2-1.1,0.1-1.5l4.2-5.2l-4.2-4.1l-5.2,4.2c-0.4,0.3-1,0.4-1.5,0.1c-1.5-0.9-3.1-1.5-4.7-2c-0.5-0.1-0.9-0.6-1-1.1
					L67.3,51h-5.9l-0.7,6.7c-0.1,0.5-0.4,1-1,1.1c-1.6,0.4-3.2,1.1-4.7,2c-0.5,0.3-1.1,0.2-1.5-0.1l-5.2-4.2l-4.1,4.1l4.2,5.2
					c0.3,0.4,0.4,1,0.1,1.5c-0.9,1.5-1.5,3.1-2,4.7c-0.1,0.5-0.6,0.9-1.1,1l-6.7,0.7v5.9l6.7,0.7c0.5,0.1,1,0.5,1.1,1
					c0.4,1.6,1.1,3.2,2,4.7c0.3,0.5,0.2,1.1-0.1,1.5l-4.2,5.2l4.1,4.2l5.2-4.2c0.4-0.3,1-0.4,1.5-0.1c1.5,0.9,3.1,1.5,4.7,2
					c0.5,0.1,0.9,0.6,1,1.1C60.7,95.8,61.4,102.4,61.4,102.4z"/>
			</g>
		</g>
		<g>
			<path class="st0" d="M55.8,23.8H37.5c-0.7,0-1.3-0.6-1.3-1.3c0-0.7,0.6-1.3,1.3-1.3h18.3c0.7,0,1.3,0.6,1.3,1.3
				C57.1,23.3,56.6,23.8,55.8,23.8z"/>
		</g>
		<g>
			<path class="st0" d="M78.1,30.4H37.5c-0.7,0-1.3-0.6-1.3-1.3c0-0.7,0.6-1.3,1.3-1.3h40.6c0.7,0,1.3,0.6,1.3,1.3
				S78.8,30.4,78.1,30.4z"/>
		</g>
		<g>
			<path class="st0" d="M78.1,36.9H37.5c-0.7,0-1.3-0.6-1.3-1.3s0.6-1.3,1.3-1.3h40.6c0.7,0,1.3,0.6,1.3,1.3
				C79.4,36.4,78.8,36.9,78.1,36.9z"/>
		</g>
		<g>
			<path class="st0" d="M113.5,23.8c-4.3,0-7.9-3.5-7.9-7.9c0-4.3,3.5-7.9,7.9-7.9c4.3,0,7.9,3.5,7.9,7.9S117.8,23.8,113.5,23.8z
				 M113.5,10.7c-2.9,0-5.2,2.4-5.2,5.2s2.4,5.2,5.2,5.2c2.9,0,5.2-2.4,5.2-5.2S116.4,10.7,113.5,10.7z"/>
		</g>
		<g>
			<path class="st0" d="M12.6,96.1c-5.1,0-9.3-4.2-9.3-9.3c0-5.1,4.2-9.3,9.3-9.3s9.3,4.2,9.3,9.3C21.9,91.9,17.7,96.1,12.6,96.1z
				 M12.6,80c-3.7,0-6.7,3-6.7,6.7s3,6.7,6.7,6.7s6.7-3,6.7-6.7S16.3,80,12.6,80z"/>
		</g>
	</g>
</g>
</svg>
