<?xml version="1.0" encoding="utf-8"?>
<!-- Generator: Adobe Illustrator 26.0.1, SVG Export Plug-In . SVG Version: 6.00 Build 0)  -->
<svg version="1.1" id="Layer_1" xmlns="http://www.w3.org/2000/svg" xmlns:xlink="http://www.w3.org/1999/xlink" x="0px" y="0px"
	 viewBox="0 0 125 125" style="enable-background:new 0 0 125 125;" xml:space="preserve">
<path d="M19.7,74.7c0.5,0.3,0.7,1,0.5,1.5c-0.6,1.6-0.8,3.4-0.8,5.1c0,5.3,2.6,10.3,7,13.4c0.5,0.4,0.7,1.1,0.4,1.7
	c-0.4,0.8-0.6,1.7-0.6,2.7c0,3.1,2.4,5.6,5.5,5.8c0.7,0.1,1.2,0.6,1.2,1.3c0.4,7.9,11.5,10.7,21,10.7h2.4c2.5,0.1,4.6-1.8,4.7-4.3
	V87.7l0.2-0.2h-5.2L50.5,94v3.3c2.6,0.7,4.1,3.4,3.3,6c-0.7,2.6-3.4,4.1-6,3.3s-4.1-3.4-3.3-6c0.5-1.6,1.7-2.9,3.3-3.3v-3.8
	c0-0.3,0.1-0.6,0.3-0.9l6.1-7.4c0.3-0.3,0.6-0.5,1-0.5h5.6v-5.6H48.7c-0.7,0-1.3-0.6-1.3-1.3v-0.4h-3.3L44,77.7l-3.9,3.9v7.7
	c2.6,0.7,4.1,3.4,3.3,6c-0.7,2.6-3.4,4.1-6,3.3c-2.6-0.7-4.1-3.4-3.3-6c0.5-1.6,1.7-2.9,3.3-3.3v-6.9h-3.1c-0.7,2.6-3.4,4.1-6,3.3
	c-2.6-0.7-4.1-3.4-3.3-6s3.4-4.1,6-3.3c1.6,0.5,2.9,1.7,3.3,3.3h3.9l0.3-0.4l4.1-4.1c0.3-0.2,0.6-0.4,0.9-0.4h3.8v-9.4H32.9
	c-0.7,2.6-3.4,4.1-6,3.3s-4.1-3.4-3.3-6c0.7-2.6,3.4-4.1,6-3.3c1.6,0.5,2.9,1.7,3.3,3.3h14.5v-7.7l-2.3-2.2l-6.9-6.6h-9.9
	c-0.7,2.6-3.4,4.1-6,3.3s-4.1-3.4-3.3-6s3.4-4.1,6-3.3c1.6,0.5,2.9,1.7,3.3,3.3h5.6V33.4c-2.6-0.7-4.1-3.4-3.3-6s3.4-4.1,6-3.3
	c2.6,0.7,4.1,3.4,3.3,6c-0.5,1.6-1.7,2.9-3.3,3.3v10.2h2.2c0.3,0,0.7,0.1,0.9,0.4l7.8,7.4v-1.1c0-0.7,0.6-1.3,1.3-1.3h12.2v-3h-3.5
	c-0.3,0-0.7-0.1-0.9-0.4l-9.7-9.7c-0.3-0.2-0.4-0.6-0.4-0.9v-8.5c-2.6-0.7-4.1-3.4-3.3-6c0.7-2.6,3.4-4.1,6-3.3s4.1,3.4,3.3,6
	c-0.5,1.6-1.7,2.9-3.3,3.3v8l8.9,8.9h3.3l-0.3-0.4V16c0-2.9-5.9-6.1-13.7-6.1c-5.1-0.1-10.2,1.5-14.3,4.6c-4.5,3.6-6.8,9.1-6.8,16.2
	c0,0.7-0.6,1.3-1.3,1.3c-11.3,0-15.4,4.9-15.4,18.7C9.4,62.6,12.6,70.1,19.7,74.7z"/>
<path d="M80.2,34.8v-8.4c-2.6-0.7-4.1-3.4-3.3-6s3.4-4.1,6-3.3c2.6,0.7,4.1,3.4,3.3,6c-0.5,1.6-1.7,2.9-3.3,3.3V34h4.5
	c0.6-2.6,3.1-4.3,5.8-3.8c2.6,0.6,4.3,3.1,3.8,5.8c-0.6,2.6-3.1,4.3-5.8,3.8c-1.7-0.3-3-1.5-3.6-3.1h-5.4L72.8,46
	c-0.3,0.2-0.6,0.4-0.9,0.4h-8.3v2.7h12.8c0.7,0,1.3,0.6,1.3,1.3v3H81l4.4-4.5c0.3-0.2,0.6-0.4,0.9-0.4h13.3c0.7-2.6,3.4-4.1,6-3.3
	c2.6,0.7,4.1,3.4,3.3,6s-3.4,4.1-6,3.3c-1.6-0.5-2.9-1.7-3.3-3.3H86.9L85.2,53l-2.7,2.7c-0.2,0.3-0.6,0.4-0.9,0.4h-3.9v6.8h2.8
	c0.7-2.6,3.4-4.1,6-3.3c2.6,0.7,4.1,3.4,3.3,6s-3.4,4.1-6,3.3c-1.6-0.5-2.9-1.7-3.3-3.3h-2.8v7.1h1.5c0.4,0,0.7,0.1,0.9,0.4l2.7,2.7
	l1.8,1.8h9.2c0.7-2.6,3.4-4.1,6-3.3c2.6,0.7,4.1,3.4,3.3,6s-3.4,4.1-6,3.3c-1.6-0.5-2.9-1.7-3.3-3.3H84c-0.4,0-0.7-0.1-0.9-0.4
	l-4.4-4.5h-1V78c0,0.7-0.6,1.3-1.3,1.3H63.6V85h3.5c0.4,0,0.7,0.1,0.9,0.4l9.3,9.3h8.8c0.7-2.6,3.4-4.1,6-3.3c2.6,0.7,4.1,3.4,3.3,6
	s-3.4,4.1-6,3.3c-1.6-0.5-2.9-1.7-3.3-3.3h-8v7.2c2.6,0.7,4.1,3.4,3.3,6c-0.7,2.6-3.4,4.1-6,3.3c-2.6-0.7-4.1-3.4-3.3-6
	c0.5-1.6,1.7-2.9,3.3-3.3v-8l-8.9-8.9h-3.3l0.3,0.5v24.4c0.1,2.5,2.3,4.4,4.7,4.3h2.4c9.4,0,20.6-2.8,21-10.7c0-0.7,0.6-1.2,1.2-1.3
	c3-0.2,5.4-2.8,5.4-5.8c0-0.9-0.2-1.8-0.6-2.7c-0.3-0.6-0.1-1.3,0.4-1.7c4.3-3.1,6.9-8.1,7-13.4c0-1.7-0.3-3.5-0.8-5.1
	c-0.2-0.6,0-1.2,0.5-1.5c7.1-4.6,10.3-12,10.3-24.2c0-13.7-4-18.6-15.3-18.7c-0.7,0-1.3-0.6-1.3-1.3c0-7.1-2.3-12.6-6.8-16.2
	c-4.1-3.1-9.2-4.6-14.3-4.5c-7.8,0-13.7,3.2-13.7,6.1v27.7h7.8L80.2,34.8z"/>
<path d="M83.7,21.8c0-1.2-1-2.2-2.2-2.2c-1.2,0-2.2,1-2.2,2.2c0,1.2,1,2.2,2.2,2.2l0,0C82.8,23.9,83.7,23,83.7,21.8z"/>
<path d="M94.3,34.9c0-1.2-1-2.2-2.2-2.2c-1.2,0-2.2,1-2.2,2.2c0,1.2,1,2.2,2.2,2.2l0,0C93.3,37.1,94.3,36.1,94.3,34.9z"/>
<path d="M106.6,49.8c0-1.2-1-2.2-2.2-2.2c-1.2,0-2.2,1-2.2,2.2c0,1.2,1,2.2,2.2,2.2c0,0,0,0,0,0C105.6,52,106.6,51,106.6,49.8z"/>
<path d="M87.3,64.1c0-1.2-1-2.2-2.2-2.2s-2.2,1-2.2,2.2c0,1.2,1,2.2,2.2,2.2l0,0C86.3,66.3,87.3,65.3,87.3,64.1z"/>
<path d="M100.6,78.8c0-1.2-1-2.2-2.2-2.2s-2.2,1-2.2,2.2c0,1.2,1,2.2,2.2,2.2l0,0C99.6,81,100.6,80,100.6,78.8z"/>
<path d="M92.9,95.9c0-1.2-0.9-2.2-2.1-2.2c-1.2,0-2.2,0.9-2.2,2.1c0,1.2,0.9,2.2,2.1,2.2c0,0,0.1,0,0.1,0C91.9,98,92.9,97,92.9,95.9
	z"/>
<path d="M74.6,109.1c0,1.2,1,2.2,2.2,2.2s2.2-1,2.2-2.2s-1-2.2-2.2-2.2l0,0C75.5,106.9,74.6,107.9,74.6,109.1z"/>
<path d="M46.9,102c0,1.2,1,2.2,2.2,2.2c1.2,0,2.2-1,2.2-2.2s-1-2.2-2.2-2.2l0,0C47.9,99.8,46.9,100.8,46.9,102z"/>
<circle cx="38.7" cy="93.9" r="2.2"/>
<path d="M37.4,28.8c0-1.2-1-2.2-2.2-2.2c-1.2,0-2.2,1-2.2,2.2c0,1,0.7,1.9,1.6,2.1c0.4-0.2,0.8-0.2,1.1,0
	C36.7,30.6,37.4,29.8,37.4,28.8z"/>
<path d="M27.6,81c0,1.2,1,2.2,2.2,2.2s2.2-1,2.2-2.2c0-1.2-1-2.2-2.2-2.2c0,0,0,0,0,0C28.6,78.9,27.6,79.8,27.6,81z"/>
<circle cx="28.3" cy="64.1" r="2.2"/>
<path d="M21.4,45c0,1.2,1,2.2,2.2,2.2c1.2,0,2.2-1,2.2-2.2c0-1.2-1-2.2-2.2-2.2c0,0,0,0,0,0C22.4,42.8,21.4,43.8,21.4,45
	C21.4,45,21.4,45,21.4,45z"/>
<circle cx="47.7" cy="21.8" r="2.2"/>
<path d="M50,76.6h25v-25H50V76.6z M53.2,56.1c0-0.7,0.6-1.3,1.3-1.3h16.1c0.7,0,1.3,0.6,1.3,1.3v16.1c0,0.7-0.6,1.3-1.3,1.3H54.5
	c-0.7,0-1.3-0.6-1.3-1.3V56.1z"/>
<rect x="55.8" y="57.4" width="13.4" height="13.4"/>
</svg>
