<?xml version="1.0" encoding="utf-8"?>
<!-- Generator: Adobe Illustrator 26.0.1, SVG Export Plug-In . SVG Version: 6.00 Build 0)  -->
<svg version="1.1" id="Layer_1" xmlns="http://www.w3.org/2000/svg" xmlns:xlink="http://www.w3.org/1999/xlink" x="0px" y="0px"
	 viewBox="0 0 65 81.2" style="enable-background:new 0 0 65 81.2;" xml:space="preserve">
<g>
	<g>
		<path d="M59.2,25.9c2.2,0,4-1.8,4-4V11.2c0-2.2-1.8-4-4-4H5.8c-2.2,0-4,1.8-4,4v10.7c0,2.2,1.8,4,4,4h4.5v4.4H5.8
			c-2.2,0-4,1.8-4,4v10.7c0,2.2,1.8,4,4,4h4.5v2c0,0.7,0.6,1.2,1.2,1.2h2.9c0.7,0,1.2-0.6,1.2-1.2v-2h4.1v-3.6
			c0-1.3,0.2-2.6,0.6-3.8H19c-1,0-1.9-0.8-1.9-1.9c0-1.1,0.9-1.9,1.9-1.9h3.3c2.3-3.1,6-5.1,10.2-5.1c3.4,0,6.6,1.3,9,3.7
			c0.7,0.7,1.3,1.4,1.8,2.2c0.4-1.1,1.5-1.8,2.8-1.8c1.6,0.1,2.7,1.5,2.6,3c-0.1,1.6-1.4,2.7-3,2.6c-0.3,0-0.6-0.1-0.9-0.2
			c0.3,1,0.4,2,0.4,3.1v3.6h4.1v2c0,0.7,0.6,1.2,1.2,1.2h2.9c0.7,0,1.2-0.6,1.2-1.2v-2h4.5c2.2,0,4-1.8,4-4V34.2c0-2.2-1.8-4-4-4
			h-4.5v-4.4L59.2,25.9L59.2,25.9z M46.1,13.7c1.6,0.1,2.7,1.4,2.6,3c-0.1,1.6-1.4,2.7-3,2.6c-1.6-0.1-2.7-1.5-2.6-3
			C43.2,14.8,44.5,13.6,46.1,13.7z M19,14.7h18.4c1,0,1.9,0.8,1.9,1.9c0,1.1-0.8,1.9-1.9,1.9H19c-1,0-1.9-0.8-1.9-1.9
			C17.1,15.5,18,14.7,19,14.7z M49.3,30.3H15.7v-4.4h33.7L49.3,30.3L49.3,30.3z M54.8,36.7c1.6,0.1,2.7,1.5,2.6,3
			c-0.1,1.6-1.4,2.7-3,2.6c-1.6-0.1-2.7-1.4-2.6-3C51.9,37.8,53.2,36.6,54.8,36.7z M54.4,19.4c-1.6-0.1-2.7-1.5-2.6-3
			c0.1-1.6,1.4-2.7,3-2.6c1.6,0.1,2.7,1.4,2.6,3C57.3,18.3,56,19.5,54.4,19.4z"/>
	</g>
	<g>
		<path d="M44.7,55.2h-1.5v-10c0-2.9-1.1-5.5-3.1-7.5c-2-2-4.7-3.1-7.5-3.1c-5.9,0-10.7,4.8-10.7,10.7v10h-1.5c-0.5,0-1,0.4-1,1
			v18.1c0,0.3,0.3,0.6,0.6,0.6H22c1,0,1.9-0.5,2.4-1.4l0.2-0.3c0.6-1.1,1.7-1.7,3-1.7h0.9v0.8c0,0.4,0.3,0.7,0.7,0.7
			c0.4,0,0.7-0.3,0.7-0.7v-0.8h1.1v0.8c0,0.4,0.3,0.7,0.7,0.7c0.4,0,0.7-0.3,0.7-0.7v-0.8h1.1v0.8c0,0.4,0.3,0.7,0.7,0.7
			c0.4,0,0.7-0.3,0.7-0.7v-0.8h1.1v0.8c0,0.4,0.3,0.7,0.7,0.7s0.7-0.3,0.7-0.7v-0.8c1.1,0.1,2.1,0.7,2.6,1.7l0.2,0.3
			c0.5,0.9,1.4,1.4,2.4,1.4H45c0.3,0,0.6-0.3,0.6-0.6v-18C45.7,55.7,45.2,55.2,44.7,55.2z M37.5,64.9h-10c-0.5,0-0.8-0.4-0.8-0.8
			s0.4-0.8,0.8-0.8h10c0.5,0,0.8,0.4,0.8,0.8S37.9,64.9,37.5,64.9z M37.5,60.4h-10c-0.5,0-0.8-0.4-0.8-0.8c0-0.5,0.4-0.8,0.8-0.8h10
			c0.5,0,0.8,0.4,0.8,0.8C38.3,60.1,37.9,60.4,37.5,60.4z M39.9,55.2H25.1v-10c0-4.1,3.3-7.4,7.4-7.4c2,0,3.8,0.8,5.2,2.2
			c1.4,1.4,2.2,3.3,2.2,5.2L39.9,55.2L39.9,55.2z"/>
	</g>
</g>
</svg>
