<?xml version="1.0" encoding="utf-8"?>
<!-- Generator: Adobe Illustrator 26.0.1, SVG Export Plug-In . SVG Version: 6.00 Build 0)  -->
<svg version="1.1" id="Layer_1" xmlns="http://www.w3.org/2000/svg" xmlns:xlink="http://www.w3.org/1999/xlink" x="0px" y="0px"
	 viewBox="0 0 125 125" style="enable-background:new 0 0 125 125;" xml:space="preserve">
<style type="text/css">
	.st0{fill:#FFFFFF;}
</style>
<g>
	<path class="st0" d="M97.9,108.6c-10.2,7.9-22.4,12-35.4,12c-32,0-58.1-26.1-58.1-58.1c0-13.7,4.8-26.9,13.6-37.3v8.5
		c0,0.8,0.6,1.4,1.4,1.4s1.4-0.6,1.4-1.4V21.5c0-0.8-0.6-1.4-1.4-1.4H7.5c-0.8,0-1.4,0.6-1.4,1.4s0.6,1.4,1.4,1.4h8.7
		C6.8,34,1.6,47.9,1.6,62.5c0,33.6,27.3,60.9,60.9,60.9c13.5,0,26.4-4.3,37.1-12.6c0.6-0.5,0.7-1.3,0.3-2
		C99.3,108.2,98.5,108.1,97.9,108.6z"/>
	<path class="st0" d="M115.8,102.1l-8.2,1.3c10.2-11.2,15.8-25.7,15.8-40.9c0-33.6-27.3-60.9-60.9-60.9c-14.3,0-28.2,5.1-39.2,14.3
		c-0.6,0.5-0.7,1.4-0.2,2c0.5,0.6,1.4,0.7,2,0.2C35.6,9.2,48.8,4.4,62.5,4.4c32,0,58.1,26.1,58.1,58.1c0,14.7-5.5,28.6-15.4,39.4
		l-1.4-8.8c-0.1-0.8-0.8-1.3-1.6-1.2c-0.8,0.1-1.3,0.8-1.2,1.6l1.9,12c0.1,0.4,0.3,0.7,0.6,0.9c0.2,0.2,0.5,0.3,0.8,0.3
		c0.1,0,0.1,0,0.2,0l11.7-1.9c0.8-0.1,1.3-0.8,1.2-1.6C117.3,102.4,116.6,101.9,115.8,102.1z"/>
	<path class="st0" d="M43.4,26.2c-0.8,0-1.4,0.6-1.4,1.4v6.2c0,0.8,0.6,1.4,1.4,1.4c0.8,0,1.4-0.6,1.4-1.4v-6.2
		C44.8,26.8,44.2,26.2,43.4,26.2z"/>
	<path class="st0" d="M47.6,26.2c-0.8,0-1.4,0.6-1.4,1.4v6.2c0,0.8,0.6,1.4,1.4,1.4s1.4-0.6,1.4-1.4v-6.2
		C49,26.8,48.4,26.2,47.6,26.2z"/>
	<path class="st0" d="M51.8,26.2c-0.8,0-1.4,0.6-1.4,1.4v6.2c0,0.8,0.6,1.4,1.4,1.4s1.4-0.6,1.4-1.4v-6.2
		C53.2,26.8,52.5,26.2,51.8,26.2z"/>
	<path class="st0" d="M55.9,26.2c-0.8,0-1.4,0.6-1.4,1.4v6.2c0,0.8,0.6,1.4,1.4,1.4c0.8,0,1.4-0.6,1.4-1.4v-6.2
		C57.3,26.8,56.7,26.2,55.9,26.2z"/>
	<path class="st0" d="M77.3,34.4c2.1,0,3.7-1.7,3.7-3.7c0-2.1-1.7-3.7-3.7-3.7c-2.1,0-3.7,1.7-3.7,3.7S75.2,34.4,77.3,34.4z
		 M77.3,29.7c0.5,0,1,0.4,1,1c0,0.5-0.4,1-1,1s-1-0.4-1-1C76.3,30.1,76.8,29.7,77.3,29.7z"/>
	<path class="st0" d="M77.3,50.6c-2.1,0-3.7,1.7-3.7,3.7c0,2.1,1.7,3.7,3.7,3.7c2.1,0,3.7-1.7,3.7-3.7C81,52.3,79.4,50.6,77.3,50.6z
		 M77.3,55.3c-0.5,0-1-0.4-1-1c0-0.5,0.4-1,1-1s1,0.4,1,1C78.3,54.9,77.8,55.3,77.3,55.3z"/>
	<path class="st0" d="M77.3,80.3c2.1,0,3.7-1.7,3.7-3.7s-1.7-3.7-3.7-3.7c-2.1,0-3.7,1.7-3.7,3.7C73.6,78.7,75.2,80.3,77.3,80.3z
		 M77.3,75.7c0.5,0,1,0.4,1,1c0,0.5-0.4,1-1,1s-1-0.4-1-1C76.3,76.1,76.8,75.7,77.3,75.7z"/>
	<path class="st0" d="M43.4,49.8c-0.8,0-1.4,0.6-1.4,1.4v6.2c0,0.8,0.6,1.4,1.4,1.4c0.8,0,1.4-0.6,1.4-1.4v-6.2
		C44.8,50.5,44.2,49.8,43.4,49.8z"/>
	<path class="st0" d="M47.6,49.8c-0.8,0-1.4,0.6-1.4,1.4v6.2c0,0.8,0.6,1.4,1.4,1.4s1.4-0.6,1.4-1.4v-6.2
		C49,50.5,48.4,49.8,47.6,49.8z"/>
	<path class="st0" d="M51.8,49.8c-0.8,0-1.4,0.6-1.4,1.4v6.2c0,0.8,0.6,1.4,1.4,1.4s1.4-0.6,1.4-1.4v-6.2
		C53.2,50.5,52.5,49.8,51.8,49.8z"/>
	<path class="st0" d="M55.9,49.8c-0.8,0-1.4,0.6-1.4,1.4v6.2c0,0.8,0.6,1.4,1.4,1.4c0.8,0,1.4-0.6,1.4-1.4v-6.2
		C57.3,50.5,56.7,49.8,55.9,49.8z"/>
	<path class="st0" d="M38,68.1c-0.8,0-1.4,0.6-1.4,1.4v14.3c0,0.8,0.6,1.4,1.4,1.4h23.1v8.8c-3.4,0.6-6,3.4-6.4,6.8h-7.1
		c-0.8,0-1.4,0.6-1.4,1.4c0,0.8,0.6,1.4,1.4,1.4h29.7c0.8,0,1.4-0.6,1.4-1.4c0-0.8-0.6-1.4-1.4-1.4h-6.9c-0.4-3.5-3-6.2-6.4-6.8
		v-8.8h23.1c0.8,0,1.4-0.6,1.4-1.4V69.5c0-0.8-0.6-1.4-1.4-1.4H64v-5.2h23.1c0.8,0,1.4-0.6,1.4-1.4V47.2c0-0.8-0.6-1.4-1.4-1.4H64
		v-6.6h23.1c0.8,0,1.4-0.6,1.4-1.4V23.5c0-0.8-0.6-1.4-1.4-1.4H38c-0.8,0-1.4,0.6-1.4,1.4v14.3c0,0.8,0.6,1.4,1.4,1.4h23.1v6.6H38
		c-0.8,0-1.4,0.6-1.4,1.4v14.3c0,0.8,0.6,1.4,1.4,1.4h23.1v5.2H38z M67.6,100.7h-10c0.4-2.4,2.5-4.2,5-4.2
		C65.1,96.6,67.1,98.4,67.6,100.7z M39.4,24.9h46.3v11.5H39.4V24.9z M39.4,48.6h46.3v11.5H39.4V48.6z M85.7,82.3H39.4V70.9h46.3
		V82.3z"/>
	<path class="st0" d="M43.4,72.1c-0.8,0-1.4,0.6-1.4,1.4v6.2c0,0.8,0.6,1.4,1.4,1.4c0.8,0,1.4-0.6,1.4-1.4v-6.2
		C44.8,72.7,44.2,72.1,43.4,72.1z"/>
	<path class="st0" d="M47.6,72.1c-0.8,0-1.4,0.6-1.4,1.4v6.2c0,0.8,0.6,1.4,1.4,1.4s1.4-0.6,1.4-1.4v-6.2
		C49,72.7,48.4,72.1,47.6,72.1z"/>
	<path class="st0" d="M51.8,72.1c-0.8,0-1.4,0.6-1.4,1.4v6.2c0,0.8,0.6,1.4,1.4,1.4s1.4-0.6,1.4-1.4v-6.2
		C53.2,72.7,52.5,72.1,51.8,72.1z"/>
	<path class="st0" d="M55.9,72.1c-0.8,0-1.4,0.6-1.4,1.4v6.2c0,0.8,0.6,1.4,1.4,1.4c0.8,0,1.4-0.6,1.4-1.4v-6.2
		C57.3,72.7,56.7,72.1,55.9,72.1z"/>
</g>
</svg>
