<?xml version="1.0" encoding="utf-8"?>
<!-- Generator: Adobe Illustrator 26.0.1, SVG Export Plug-In . SVG Version: 6.00 Build 0)  -->
<svg version="1.1" id="Layer_1" xmlns="http://www.w3.org/2000/svg" xmlns:xlink="http://www.w3.org/1999/xlink" x="0px" y="0px"
	 viewBox="0 0 125 125" style="enable-background:new 0 0 125 125;" xml:space="preserve">
<path d="M113.4,52.5l-10.4-1.2c-0.9-3-2.1-5.9-3.6-8.6l6.5-8.2c1.8-2.3,1.6-5.6-0.4-7.6l-7.7-7.7c-2.1-2.1-5.3-2.3-7.6-0.4L82,25.2
	c-2.7-1.5-5.6-2.7-8.6-3.6l-1.2-10.4c-0.3-2.9-2.8-5.1-5.7-5.1H55.6c-2.9,0-5.4,2.2-5.7,5.1l-1.2,10.4c-3,0.9-5.9,2.1-8.6,3.6
	l-8.2-6.5c-2.3-1.8-5.6-1.6-7.6,0.4l-7.7,7.7c-2.1,2.1-2.3,5.3-0.4,7.6l6.5,8.2c-1.5,2.7-2.7,5.6-3.6,8.6L8.6,52.5
	c-2.9,0.3-5.1,2.8-5.1,5.7v10.9c0,2.9,2.2,5.4,5.1,5.7l10.4,1.2c0.9,3,2.1,5.9,3.6,8.6L16,92.9c-1.8,2.3-1.6,5.6,0.4,7.6l7.7,7.7
	c2.1,2.1,5.3,2.3,7.6,0.4l8.2-6.5c2.7,1.5,5.6,2.7,8.6,3.6l1.2,10.4c0.3,2.9,2.8,5.1,5.7,5.1h10.9c2.9,0,5.4-2.2,5.7-5.1l1.2-10.4
	c3-0.9,5.9-2.1,8.6-3.6l8.2,6.5c2.3,1.8,5.6,1.6,7.6-0.4l7.7-7.7c2.1-2.1,2.3-5.3,0.4-7.6l-6.5-8.2c1.5-2.7,2.7-5.6,3.6-8.6
	l10.4-1.2c2.9-0.3,5.1-2.8,5.1-5.7V58.2C118.5,55.3,116.3,52.9,113.4,52.5z M115.6,69.1c0,1.5-1.1,2.7-2.5,2.9l-11.3,1.3
	c-0.6,0.1-1.1,0.5-1.2,1.1c-0.9,3.4-2.3,6.7-4,9.7c-0.3,0.5-0.2,1.1,0.1,1.6l7.1,8.9c0.9,1.1,0.8,2.8-0.2,3.8l-7.7,7.7
	c-1,1-2.7,1.1-3.8,0.2L83,99.3c-0.5-0.4-1.1-0.4-1.6-0.1c-3.1,1.8-6.3,3.1-9.7,4c-0.6,0.2-1,0.6-1.1,1.2l-1.3,11.3
	c-0.2,1.4-1.4,2.5-2.9,2.5H55.6c-1.5,0-2.7-1.1-2.9-2.5l-1.3-11.3c-0.1-0.6-0.5-1.1-1.1-1.2c-3.4-0.9-6.7-2.3-9.7-4
	c-0.2-0.1-0.5-0.2-0.7-0.2c-0.3,0-0.6,0.1-0.9,0.3l-8.9,7.1c-1.1,0.9-2.8,0.8-3.8-0.2l-7.7-7.7c-1-1-1.1-2.7-0.2-3.8l7.1-8.9
	c0.4-0.5,0.4-1.1,0.1-1.6c-1.8-3.1-3.1-6.3-4-9.7c-0.2-0.6-0.6-1-1.2-1.1L8.9,72c-1.4-0.2-2.5-1.4-2.5-2.9V58.2
	c0-1.5,1.1-2.7,2.5-2.9l11.3-1.3c0.6-0.1,1.1-0.5,1.2-1.1c0.9-3.4,2.3-6.7,4-9.7c0.3-0.5,0.2-1.1-0.1-1.6l-7.1-8.9
	c-0.9-1.1-0.8-2.8,0.2-3.8l7.7-7.7c1-1,2.7-1.1,3.8-0.2L39,28c0.5,0.4,1.1,0.4,1.6,0.1c3.1-1.8,6.3-3.1,9.7-4c0.6-0.2,1-0.6,1.1-1.2
	l1.3-11.3c0.2-1.4,1.4-2.5,2.9-2.5h10.9c1.5,0,2.7,1.1,2.9,2.5l1.3,11.3c0.1,0.6,0.5,1.1,1.1,1.2c3.4,0.9,6.7,2.3,9.7,4
	c0.5,0.3,1.1,0.2,1.6-0.1L92,21c1.1-0.9,2.8-0.8,3.8,0.2l7.7,7.7c1,1,1.1,2.7,0.2,3.8l-7.1,8.9c-0.4,0.5-0.4,1.1-0.1,1.6
	c1.8,3.1,3.1,6.3,4,9.7c0.2,0.6,0.6,1,1.2,1.1l11.3,1.3c1.4,0.2,2.5,1.4,2.5,2.9V69.1z"/>
<path d="M61,42.3c-11.8,0-21.4,9.6-21.4,21.4S49.2,85.1,61,85.1s21.4-9.6,21.4-21.4S72.8,42.3,61,42.3z M61,82.2
	c-10.2,0-18.5-8.3-18.5-18.5S50.8,45.1,61,45.1s18.5,8.3,18.5,18.5S71.2,82.2,61,82.2z"/>
</svg>
