<?xml version="1.0" encoding="utf-8"?>
<!-- Generator: Adobe Illustrator 26.0.1, SVG Export Plug-In . SVG Version: 6.00 Build 0)  -->
<svg version="1.1" id="Layer_1" xmlns:sketch="http://www.bohemiancoding.com/sketch/ns"
	 xmlns="http://www.w3.org/2000/svg" xmlns:xlink="http://www.w3.org/1999/xlink" x="0px" y="0px" viewBox="0 0 125 125"
	 style="enable-background:new 0 0 125 125;" xml:space="preserve">
<style type="text/css">
	.st0{fill-rule:evenodd;clip-rule:evenodd;}
</style>
<desc>Created with Sketch.</desc>
<g sketch:type="MSPage">
	<g sketch:type="MSLayerGroup">
		<path sketch:type="MSShapeGroup" class="st0" d="M62,121c31.8,0,57.5-25.7,57.5-57.5S93.8,6,62,6S4.5,31.7,4.5,63.5
			S30.2,121,62,121L62,121z M62,110.5c26,0,47-21.1,47-47s-21.1-47-47-47s-47,21.1-47,47S36,110.5,62,110.5L62,110.5z M71.1,38.7
			c0,2.2-0.7,4-2.2,5.5c-1.5,1.5-3.3,2.3-5.4,2.3c-2.1,0-3.9-0.8-5.4-2.3c-1.5-1.5-2.3-3.4-2.3-5.5c0-2.2,0.8-4,2.3-5.6
			c1.5-1.5,3.3-2.3,5.4-2.3c2.1,0,3.9,0.8,5.4,2.3C70.4,34.7,71.1,36.5,71.1,38.7L71.1,38.7z M70.4,90.2c-2.2,1.1-4,1.9-5.4,2.5
			c-1.3,0.6-2.9,0.8-4.7,0.8c-2.7,0-4.8-0.8-6.3-2.4c-1.5-1.6-2.3-3.7-2.3-6.1c0-1,0.1-2,0.2-3c0.1-1,0.3-2.1,0.5-3.4l2.8-12.1
			c0.2-1.2,0.5-2.3,0.6-3.3c0.2-1,0.3-2,0.3-2.8c0-1.5-0.3-2.6-0.8-3.2c-0.5-0.6-1.5-0.9-3-0.9c-0.7,0-1.5,0.1-2.2,0.4
			c-0.8,0.3-1.2-2.9-1.2-2.9c1.8-0.9,3.6-1.7,5.3-2.3c1.7-0.6,3.3-1,4.8-1c2.7,0,4.8,0.8,6.2,2.4c1.5,1.6,2.2,3.6,2.2,6.2
			c0,0.5,0,1.4-0.2,2.8c-0.1,1.3-0.3,2.5-0.6,3.6l-2.8,12c-0.2,1-0.4,2.1-0.6,3.3C63.1,82,63,82.9,63,83.6c0,1.6,0.3,2.7,0.9,3.3
			c0.6,0.6,1.6,0.9,3.1,0.9c0.7,0,1.5-0.1,2.3-0.4S70.4,90.2,70.4,90.2L70.4,90.2z"/>
	</g>
</g>
</svg>
