<?xml version="1.0" encoding="utf-8"?>
<!-- Generator: Adobe Illustrator 26.0.1, SVG Export Plug-In . SVG Version: 6.00 Build 0)  -->
<svg version="1.1" id="Layer_1" xmlns="http://www.w3.org/2000/svg" xmlns:xlink="http://www.w3.org/1999/xlink" x="0px" y="0px"
	 viewBox="0 0 80 80" style="enable-background:new 0 0 80 80;" xml:space="preserve">
<desc>Network icon for website, application, printing, document, poster design, etc.</desc>
<g>
	<g>
		<path d="M44.6,16.4c0.7,0,1.3-0.6,1.3-1.3v-3.8c0-0.7-0.6-1.3-1.3-1.3h-5.1c-0.7,0-1.3,0.6-1.3,1.3c0,0.7,0.6,1.3,1.3,1.3h3.8v2.5
			C43.4,15.8,43.9,16.4,44.6,16.4z"/>
		<path d="M37,17.7c0.7,0,1.3-0.6,1.3-1.3c0-0.7-0.6-1.3-1.3-1.3h-2.5c-0.7,0-1.3,0.6-1.3,1.3c0,0.7,0.6,1.3,1.3,1.3H37z"/>
		<path d="M39.6,63.3c0.7,0,1.3-0.6,1.3-1.3v-2.5c0-0.7-0.6-1.3-1.3-1.3H37c-0.7,0-1.3,0.6-1.3,1.3s0.6,1.3,1.3,1.3h1.3V62
			C38.3,62.7,38.9,63.3,39.6,63.3z"/>
		<path d="M71.2,53.1c0.7,0,1.3-0.6,1.3-1.3v-3.8c0-0.7-0.6-1.3-1.3-1.3h-5.1c-0.7,0-1.3,0.6-1.3,1.3s0.6,1.3,1.3,1.3H70v2.5
			C70,52.6,70.5,53.1,71.2,53.1z"/>
		<path d="M61.1,51.9c-0.7,0-1.3,0.6-1.3,1.3c0,0.7,0.6,1.3,1.3,1.3h2.5c0.7,0,1.3-0.6,1.3-1.3c0-0.7-0.6-1.3-1.3-1.3H61.1z"/>
		<path d="M76.3,48.1c0.7,0,1.3-0.6,1.3-1.3V43c0-0.7-0.6-1.3-1.3-1.3h-8.9v-7.6c0-0.7-0.6-1.3-1.3-1.3H40.8v-5.1h19
			c0.7,0,1.3-0.6,1.3-1.3V11.3c0-0.7-0.6-1.3-1.3-1.3H51V6.3C51,5.6,50.4,5,49.7,5H29.4c-0.7,0-1.3,0.6-1.3,1.3v3.8
			c0,0.7,0.6,1.3,1.3,1.3s1.3-0.6,1.3-1.3V7.5h17.7v12.7H30.7v-5.1c0-0.7-0.6-1.3-1.3-1.3s-1.3,0.6-1.3,1.3v6.3
			c0,0.7,0.6,1.3,1.3,1.3h3.8v2.5h-2.5c-0.7,0-1.3,0.6-1.3,1.3s0.6,1.3,1.3,1.3h7.6v5.1H9.2c-0.7,0-1.3,0.6-1.3,1.3v3.8H5.4
			c-2.1,0-3.8,1.7-3.8,3.8v12.7c0,2.1,1.7,3.8,3.8,3.8H13c2.1,0,3.8-1.7,3.8-3.8v-6.3c0-0.7-0.6-1.3-1.3-1.3c-0.7,0-1.3,0.6-1.3,1.3
			v6.3c0,0.7-0.6,1.3-1.3,1.3H5.4c-0.7,0-1.3-0.6-1.3-1.3V41.7c0-0.7,0.6-1.3,1.3-1.3H13c0.7,0,1.3,0.6,1.3,1.3V43
			c0,0.7,0.6,1.3,1.3,1.3c0.7,0,1.3-0.6,1.3-1.3v-1.3c0-2.1-1.7-3.8-3.8-3.8h-2.5v-2.5h24.1v17.7h-7.6c-0.7,0-1.3,0.6-1.3,1.3v11.4
			h-1.9c-0.7,0-1.3,0.6-1.3,1.3v2.5c0,2.1,1.7,3.8,3.8,3.8h19c2.1,0,3.8-1.7,3.8-3.8v-2.5c0-0.7-0.6-1.3-1.3-1.3H28.2V55.7h15.2V62
			c0,0.7,0.6,1.3,1.3,1.3s1.3-0.6,1.3-1.3v-7.6c0-0.7-0.6-1.3-1.3-1.3H37V35.4h27.9v6.3H56c-0.7,0-1.3,0.6-1.3,1.3v15.2
			c0,0.7,0.6,1.3,1.3,1.3h3.8V62h-2.5c-0.7,0-1.3,0.6-1.3,1.3s0.6,1.3,1.3,1.3H75c0.7,0,1.3-0.6,1.3-1.3S75.7,62,75,62h-2.5v-2.5
			h3.8c0.7,0,1.3-0.6,1.3-1.3v-6.3c0-0.7-0.6-1.3-1.3-1.3S75,51.2,75,51.9v5.1H57.3V44.3H75v2.5C75,47.5,75.6,48.1,76.3,48.1z
			 M58.6,20.2H51v-2.5h7.6V20.2z M48.4,25.3h-2.5v-2.5h2.5V25.3z M51,25.3v-2.5h7.6v2.5H51z M58.6,12.6v2.5H51v-2.5H58.6z
			 M35.8,22.7h7.6v2.5h-7.6V22.7z M46.5,69.6c0,0.7-0.6,1.3-1.3,1.3h-19c-0.7,0-1.3-0.6-1.3-1.3v-1.3h21.5V69.6z M70,62h-7.6v-2.5
			H70V62z"/>
		<circle cx="9.2" cy="51.9" r="1.3"/>
	</g>
</g>
</svg>
