<?xml version="1.0" encoding="utf-8"?>
<!-- Generator: Adobe Illustrator 26.0.1, SVG Export Plug-In . SVG Version: 6.00 Build 0)  -->
<svg version="1.1" id="Layer_1" xmlns="http://www.w3.org/2000/svg" xmlns:xlink="http://www.w3.org/1999/xlink" x="0px" y="0px"
	 viewBox="0 0 100 100" style="enable-background:new 0 0 100 100;" xml:space="preserve">
<g>
	<path d="M63,40.7h-0.5v-1.8c0-3.4-1.3-6.5-3.7-8.8c-2.4-2.4-5.5-3.7-8.9-3.7c-3.3,0-6.5,1.3-8.9,3.7c-2.4,2.4-3.7,5.5-3.7,8.8v1.8
		h-0.5c-1.9,0-3.4,1.5-3.4,3.4v7.8c0,9.1,7.4,16.4,16.4,16.4c9.1,0,16.4-7.4,16.4-16.4v-7.8C66.4,42.2,64.9,40.7,63,40.7z
		 M38.9,38.9c0-2.9,1.1-5.7,3.2-7.8c2.1-2.1,4.8-3.2,7.8-3.2c2.9,0,5.7,1.1,7.8,3.2c2.1,2.1,3.2,4.8,3.2,7.8v1.8h-3v-1.8
		c0-4.4-3.6-7.9-7.9-7.9c-4.4,0-7.9,3.6-7.9,7.9v1.8h-3.1L38.9,38.9L38.9,38.9z M43.5,40.7v-1.8c0-3.5,2.9-6.4,6.4-6.4
		c3.5,0,6.4,2.9,6.4,6.4v1.8H43.5z M64.8,51.9c0,8.2-6.7,14.9-14.9,14.9c-8.2,0-14.9-6.7-14.9-14.9v-7.8c0-1,0.8-1.8,1.8-1.8h1.3
		c0,0,0,0,0,0h23.5c0,0,0,0,0,0H63c1,0,1.9,0.8,1.9,1.8V51.9z"/>
	<path d="M54.7,51.1c0-2.6-2.1-4.7-4.7-4.7c-2.6,0-4.7,2.1-4.7,4.7c0,1.6,0.8,3,2,3.9l-1,3.9c-0.1,0.3,0,0.5,0.2,0.7
		c0.6,0.6,2.1,1,3.5,1c1.4,0,2.9-0.3,3.5-1c0.2-0.2,0.3-0.5,0.2-0.7l-1-3.9C53.9,54.1,54.7,52.7,54.7,51.1z M51.5,53.9
		c-0.3,0.2-0.5,0.5-0.4,0.9l1,3.9c-1,0.4-3.3,0.4-4.2,0l1-3.9c0.1-0.3-0.1-0.7-0.4-0.9c-1.1-0.6-1.7-1.6-1.7-2.8
		c0-1.8,1.4-3.2,3.2-3.2c1.8,0,3.2,1.4,3.2,3.2C53.2,52.3,52.5,53.4,51.5,53.9z"/>
	<path d="M92.7,67.6v-9.4c0-0.4-0.3-0.8-0.8-0.8H79.2c0.8-2.4,1.4-5,1.6-7.7h4.9c0.3,1.4,1.6,2.4,3.1,2.4c1.8,0,3.2-1.4,3.2-3.2
		c0-1.8-1.4-3.2-3.2-3.2c-1.5,0-2.7,1-3.1,2.4h-4.8c0-0.3,0-0.6,0-0.8c0-2.3-0.3-4.5-0.7-6.7h6.2c0.4,0,0.8-0.3,0.8-0.8V32
		c1.4-0.3,2.4-1.6,2.4-3.1c0-1.8-1.4-3.2-3.2-3.2c-1.8,0-3.2,1.4-3.2,3.2c0,1.5,1,2.7,2.4,3.1v7.2h-5.8C77,29.3,69.5,21.4,59.9,18.1
		V7.8h8.6c0.3,1.4,1.6,2.4,3.1,2.4c1.8,0,3.2-1.4,3.2-3.2c0-1.8-1.4-3.2-3.2-3.2c-1.5,0-2.7,1-3.1,2.4h-9.4c-0.4,0-0.8,0.3-0.8,0.8
		v10.6c-2.5-0.7-5-1.1-7.7-1.2v-3.1c1.4-0.3,2.4-1.6,2.4-3.1c0-1.8-1.4-3.2-3.2-3.2c-1.8,0-3.2,1.4-3.2,3.2c0,1.5,1,2.7,2.4,3.1v3.1
		c-2.6,0.1-5.1,0.5-7.5,1.1v-4.9c0-0.4-0.3-0.8-0.8-0.8h-7.9c-0.3-1.4-1.6-2.4-3.1-2.4c-1.8,0-3.2,1.4-3.2,3.2
		c0,1.8,1.4,3.2,3.2,3.2c1.5,0,2.7-1,3.1-2.4h7.2v4.6c-9.6,3.3-17.2,11.1-19.9,21H8.7v-8.6c1.4-0.3,2.4-1.6,2.4-3.1
		c0-1.8-1.4-3.2-3.2-3.2c-1.8,0-3.2,1.4-3.2,3.2c0,1.5,1,2.7,2.4,3.1v9.4c0,0.4,0.3,0.8,0.8,0.8h11.8c-0.5,2.2-0.7,4.4-0.7,6.8
		c0,0.3,0,0.6,0,0.9h-4.8c-0.3-1.4-1.6-2.4-3.1-2.4c-1.8,0-3.2,1.4-3.2,3.2c0,1.8,1.4,3.2,3.2,3.2c1.5,0,2.7-1,3.1-2.4h4.9
		c0.2,2.6,0.7,5.1,1.6,7.5h-7.1c-0.4,0-0.8,0.3-0.8,0.8v7.9c-1.4,0.3-2.4,1.6-2.4,3.1c0,1.8,1.4,3.2,3.2,3.2s3.2-1.4,3.2-3.2
		c0-1.5-1-2.7-2.4-3.1v-7.2h6.9c3.3,8.3,10.2,14.9,18.7,17.8v13.6h-8.6c-0.3-1.4-1.6-2.4-3.1-2.4c-1.8,0-3.2,1.4-3.2,3.2
		c0,1.8,1.4,3.2,3.2,3.2c1.5,0,2.7-1,3.1-2.4h9.4c0.4,0,0.8-0.3,0.8-0.8V77.1c2.5,0.7,5,1.1,7.7,1.2v6.4c-1.4,0.3-2.4,1.6-2.4,3.1
		c0,1.8,1.4,3.2,3.2,3.2c1.8,0,3.2-1.4,3.2-3.2c0-1.5-1-2.7-2.4-3.1v-6.4c2.6-0.1,5.1-0.5,7.5-1.1v8.2c0,0.2,0.1,0.3,0.2,0.5
		c0,0,0,0,0.1,0.1c0.1,0.1,0.3,0.2,0.5,0.2l0,0l7.9,0c0.3,1.4,1.6,2.4,3.1,2.4c1.8,0,3.2-1.4,3.2-3.2c0-1.8-1.4-3.2-3.2-3.2
		c-1.5,0-2.7,1-3.1,2.4h-7.2v-7.9c8.5-2.9,15.4-9.4,18.8-17.7h12.6v8.6c-1.4,0.3-2.4,1.6-2.4,3.1c0,1.8,1.4,3.2,3.2,3.2
		c1.8,0,3.2-1.4,3.2-3.2C95.1,69.2,94.1,68,92.7,67.6z M88.7,47.3c0.9,0,1.7,0.7,1.7,1.7c0,0.9-0.7,1.7-1.7,1.7
		c-0.9,0-1.6-0.7-1.7-1.6c0,0,0,0,0,0c0,0,0,0,0,0C87.1,48.1,87.8,47.3,88.7,47.3z M84.6,28.9c0-0.9,0.7-1.7,1.7-1.7
		s1.7,0.7,1.7,1.7s-0.7,1.7-1.7,1.7S84.6,29.8,84.6,28.9z M29.8,14.3c-0.9,0-1.7-0.7-1.7-1.7c0-0.9,0.7-1.7,1.7-1.7s1.7,0.7,1.7,1.7
		C31.5,13.6,30.8,14.3,29.8,14.3z M6.3,27.4c0-0.9,0.7-1.7,1.7-1.7c0.9,0,1.7,0.7,1.7,1.7C9.6,28.3,8.9,29,8,29
		C7,29,6.3,28.3,6.3,27.4z M15.3,69.1c0,0.9-0.7,1.7-1.7,1.7S12,70,12,69.1c0-0.9,0.7-1.7,1.7-1.7S15.3,68.2,15.3,69.1z M28.3,92.7
		c-0.9,0-1.7-0.7-1.7-1.7c0-0.9,0.7-1.7,1.7-1.7s1.7,0.7,1.7,1.7C29.9,91.9,29.2,92.7,28.3,92.7z M71.6,5.4c0.9,0,1.7,0.7,1.7,1.7
		c0,0.9-0.7,1.7-1.7,1.7C70.7,8.7,70,8,70,7C70,6.1,70.7,5.4,71.6,5.4z M48.2,10.3c0-0.9,0.7-1.7,1.7-1.7c0.9,0,1.7,0.7,1.7,1.7
		s-0.7,1.7-1.7,1.7C49,11.9,48.2,11.2,48.2,10.3z M11.2,50.7c-0.9,0-1.7-0.7-1.7-1.7c0-0.9,0.7-1.7,1.7-1.7c0.9,0,1.7,0.7,1.7,1.7
		C12.8,50,12.1,50.7,11.2,50.7z M51.7,87.8c0,0.9-0.7,1.7-1.7,1.7c-0.9,0-1.7-0.7-1.7-1.7c0-0.9,0.7-1.6,1.6-1.7c0,0,0,0,0,0
		c0,0,0,0,0,0C50.9,86.1,51.7,86.9,51.7,87.8z M70,83.7c0.9,0,1.7,0.7,1.7,1.7S71,87,70,87c-0.9,0-1.7-0.7-1.7-1.7
		S69.1,83.7,70,83.7z M49.9,76.8c-16.2,0-29.4-13.2-29.4-29.4S33.7,18,49.9,18c16.2,0,29.4,13.2,29.4,29.4
		C79.3,63.6,66.1,76.8,49.9,76.8z M91.9,72.4c-0.9,0-1.7-0.7-1.7-1.7c0-0.9,0.7-1.6,1.7-1.6s1.7,0.7,1.7,1.6
		C93.6,71.6,92.8,72.4,91.9,72.4z"/>
</g>
</svg>
