<?xml version="1.0" encoding="utf-8"?>
<!-- Generator: Adobe Illustrator 26.0.1, SVG Export Plug-In . SVG Version: 6.00 Build 0)  -->
<svg version="1.1"
	 id="Layer_1" xmlns:cc="http://creativecommons.org/ns#" xmlns:dc="http://purl.org/dc/elements/1.1/" xmlns:inkscape="http://www.inkscape.org/namespaces/inkscape" xmlns:rdf="http://www.w3.org/1999/02/22-rdf-syntax-ns#" xmlns:sodipodi="http://sodipodi.sourceforge.net/DTD/sodipodi-0.dtd" xmlns:svg="http://www.w3.org/2000/svg"
	 xmlns="http://www.w3.org/2000/svg" xmlns:xlink="http://www.w3.org/1999/xlink" x="0px" y="0px" viewBox="0 0 40 40"
	 style="enable-background:new 0 0 40 40;" xml:space="preserve">
<g transform="translate(0,-1020.3622)">
	<path d="M3.8,1026.9c-1,0-1.8,0.8-1.8,1.8v2.3h30.9v-2.3c0-1-0.8-1.8-1.8-1.8H3.8z"/>
	<path d="M2,1034.9v10.3c0,1,0.8,1.8,1.8,1.8h23c-0.3-1.2-0.5-2.5-0.4-4h-2.9v-4h4v1.1h0.1c1.7,0,3.2-0.7,4.4-1.9l0.8-0.9v-2.3H2z
		 M6.7,1041.6h6.7v1.3H6.7V1041.6z"/>
	<path d="M38.1,1041.2c-2,0-3.9-0.8-5.2-2.2c-1.4,1.4-3.2,2.2-5.2,2.2c-1.2,9.5,5.2,11.2,5.2,11.2S39.4,1050.6,38.1,1041.2z"/>
</g>
</svg>
