<?xml version="1.0" encoding="utf-8"?>
<!-- Generator: Adobe Illustrator 26.0.1, SVG Export Plug-In . SVG Version: 6.00 Build 0)  -->
<svg version="1.1" xmlns="http://www.w3.org/2000/svg" xmlns:xlink="http://www.w3.org/1999/xlink" x="0px" y="0px"
	 viewBox="0 0 125 125" style="enable-background:new 0 0 125 125;" xml:space="preserve">
<style type="text/css">
	.st0{fill:#FFFFFF;}
</style>
<g id="Layer_2">
</g>
<g id="Layer_1">
	<g>
		<path class="st0" d="M62.5,27.8c-19.2,0-34.7,15.5-34.7,34.7s15.5,34.7,34.7,34.7s34.7-15.5,34.7-34.7S81.7,27.8,62.5,27.8z
			 M87.4,49.8H75.6c-0.8-5.1-1.9-9.8-3.6-13.6C78.6,38.6,84.1,43.5,87.4,49.8z M90.5,62.5c0,2-0.3,4.1-0.6,6H76.2
			c0.1-2,0.3-4.1,0.3-6c0-1.9-0.1-4.1-0.3-6h13.6C90.2,58.4,90.5,60.5,90.5,62.5z M62.5,90.5c-1.5,0-4.7-5.3-6.2-15.3h12.5
			C67.2,85.3,64,90.5,62.5,90.5z M55.5,68.5c-0.1-1.9-0.3-3.9-0.3-6c0-2,0.1-4.1,0.3-6h13.9c0.1,1.9,0.3,3.9,0.3,6
			c0,2-0.1,4.1-0.3,6H55.5z M34.5,62.5c0-2,0.3-4.1,0.6-6h13.6c-0.1,2-0.3,4.1-0.3,6c0,1.9,0.1,4.1,0.3,6H35.1
			C34.7,66.6,34.5,64.5,34.5,62.5z M62.5,34.5c1.5,0,4.7,5.3,6.2,15.3H56.3C57.8,39.7,61,34.5,62.5,34.5z M53.1,36.2
			c-1.7,3.8-2.8,8.5-3.6,13.6H37.7C40.9,43.5,46.3,38.6,53.1,36.2z M37.5,75.2h11.8c0.8,5.1,1.9,9.8,3.6,13.6
			C46.3,86.4,40.9,81.5,37.5,75.2z M71.9,88.8c1.7-3.8,2.8-8.5,3.6-13.6h11.8C84.1,81.5,78.6,86.4,71.9,88.8z"/>
		<path class="st0" d="M118,48L118,48l-9.7-1.4l-2.2-5.1l5.9-7.9c1.7-2.3,1.5-5.5-0.5-7.5L99,13.6c-2-2-5.2-2.3-7.5-0.5L83.6,19
			l-5.1-2.2l-1.4-9.7c-0.4-2.8-2.9-5-5.7-5H53.7c-2.8,0-5.3,2.2-5.7,5l-1.4,9.5l-5.1,2.2L33.6,13c-2.3-1.7-5.5-1.5-7.5,0.5L13.6,26
			c-2,2-2.3,5.2-0.5,7.5l5.9,7.9l-2.2,5.1l-9.7,1.4c-2.8,0.4-5,2.9-5,5.7v17.7c0,2.8,2.2,5.3,5,5.7l9.7,1.4l2.2,5.1l-5.9,7.9
			c-1.7,2.3-1.5,5.5,0.5,7.5l12.5,12.5c2,2,5.2,2.3,7.5,0.5l7.9-5.9l5.1,2.2l1.4,9.7c0.4,2.8,2.9,5,5.7,5h17.7c2.8,0,5.3-2.2,5.7-5
			l1.4-9.7l5.1-2.2l7.9,5.9c2.3,1.7,5.5,1.5,7.5-0.5l12.5-12.5c2-2,2.3-5.2,0.5-7.5l-5.9-7.9l2.2-5.1L118,77c2.8-0.4,5-2.9,5-5.7
			V53.7C122.9,50.8,120.8,48.4,118,48z M116.2,70.5L105.4,72c-1.1,0.1-2.2,0.9-2.7,2l-3.6,8.7c-0.5,1.1-0.3,2.3,0.4,3.3l6.5,8.8
			l-11.3,11.3l-8.8-6.5c-0.9-0.8-2.2-0.9-3.3-0.4l-8.7,3.6c-1.1,0.5-1.9,1.4-2,2.7l-1.5,10.8H54.5l-1.5-10.8c-0.1-1.1-0.9-2.2-2-2.7
			l-8.7-3.6c-1.1-0.5-2.3-0.3-3.3,0.4l-8.8,6.5L18.8,94.8l6.5-8.8c0.8-0.9,0.9-2.2,0.4-3.3l-3.6-8.7c-0.5-1.1-1.4-1.9-2.7-2
			L8.7,70.5v-16L19.5,53c1.1-0.1,2.2-0.9,2.7-2l3.6-8.7c0.5-1.1,0.3-2.3-0.4-3.3l-6.5-8.8l11.3-11.3l8.8,6.5
			c0.9,0.8,2.2,0.9,3.3,0.4l8.7-3.6c1.1-0.5,1.9-1.4,2-2.7l1.5-10.8h16L72,19.5c0.1,1.1,0.9,2.2,2,2.7l8.7,3.6
			c1.1,0.5,2.3,0.3,3.3-0.4l8.8-6.5l11.3,11.3L99.6,39c-0.8,0.9-0.9,2.2-0.4,3.3l3.6,8.7c0.5,1.1,1.4,1.9,2.7,2l10.8,1.5v16H116.2z"
			/>
	</g>
</g>
</svg>
