<?xml version="1.0" encoding="utf-8"?>
<!-- Generator: Adobe Illustrator 26.0.1, SVG Export Plug-In . SVG Version: 6.00 Build 0)  -->
<svg version="1.1" id="Layer_1" xmlns="http://www.w3.org/2000/svg" xmlns:xlink="http://www.w3.org/1999/xlink" x="0px" y="0px"
	 viewBox="0 0 100 125" style="enable-background:new 0 0 100 125;" xml:space="preserve">
<style type="text/css">
	.st0{fill:none;}
</style>
<path class="st0" d="z"/>
<g>
	<path d="M67.9,26.3c3-2.8,4.4-6.1,4.4-10c0-3.9-1.5-7.3-4.4-10c-3-2.8-6.5-4.2-10.7-4.2c-4.2,0-7.7,1.4-10.7,4.2
		c-3,2.8-4.5,6.1-4.5,10c0,3.9,1.5,7.3,4.5,10c3,2.8,6.6,4.1,10.7,4.1C61.4,30.5,65,29.1,67.9,26.3z M61.1,118.4
		c5.3-2.5,8.2-7.2,5.4-9.3c-1.6-1.2-3.7,0.8-5.2,0.8c-3.3,0-5.6-0.5-6.9-1.6c-1.3-1.1-2-3.1-2-6.1c0-1.2,0.2-2.9,0.6-5.3
		c0.4-2.3,0.9-4.4,1.4-6.2l6.3-22.5c0.6-2.1,1-4.3,1.3-6.8c0.2-2.5,0.3-4.2,0.3-5.2c0-4.7-1.7-8.6-5-11.6c-3.3-3-8-4.5-14.2-4.5
		c-3.4,0-7,0.5-10.8,1.8c-7.4,2.6-5.8,9.1-4.1,9.1c3.4,0,5.6,0.6,6.8,1.7c1.2,1.1,1.8,3.1,1.8,6c0,1.6-0.2,3.4-0.6,5.3
		c-0.4,1.9-0.9,4-1.4,6.1l-6.4,22.6c-0.5,2.4-1,4.5-1.2,6.4c-0.3,1.9-0.4,3.7-0.4,5.5c0,4.6,1.7,8.5,5.1,11.5
		c3.4,3,8.7,5.8,14.8,5.8C50.8,122.1,56.5,120.6,61.1,118.4z"/>
</g>
<path class="st0" d="z"/>
</svg>
