<?xml version="1.0" encoding="utf-8"?>
<!-- Generator: Adobe Illustrator 26.0.1, SVG Export Plug-In . SVG Version: 6.00 Build 0)  -->
<svg version="1.1" xmlns="http://www.w3.org/2000/svg" xmlns:xlink="http://www.w3.org/1999/xlink" x="0px" y="0px"
	 viewBox="0 0 145 125" style="enable-background:new 0 0 145 125;" xml:space="preserve">
<g id="Layer_2">
</g>
<g id="Layer_1">
	<g>
		<path d="M126.8,67.2c0.9,2.7,3.5,4.9,6.6,4.9c3.9,0,7.1-3.2,7.1-7.1s-3.2-6.9-7.1-6.9c-3.2,0-5.8,2-6.6,4.9h-20.1v-9.2h7.8
			c0.7,0,1.4-0.4,1.9-1l4.6-7.6h5.8c0.9,2.7,3.5,4.9,6.6,4.9c3.9,0,7.1-3.2,7.1-7.1s-3.2-7.1-7.1-7.1c-3.2,0-5.8,2-6.6,4.9h-7.1
			c-0.7,0-1.4,0.4-1.9,1l-4.6,7.6h-6.5v-5.2c0-2.5-2-4.5-4.5-4.5h-9.8c0,1.9-0.3,3.6-0.9,5.2h7.2c1.6,0,2.7,1.3,2.7,2.7v31.2
			c0,1.6-1.3,2.7-2.7,2.7H45.3c-1.6,0-2.7-1.3-2.7-2.7v-31c0-1.6,1.3-2.7,2.7-2.7h7.2c-0.6-1.7-0.9-3.5-0.9-5.2h-10
			c-2.5,0-4.5,2-4.5,4.5v5.1h-6.5l-4.8-7.6c-0.4-0.6-1.2-1-1.9-1h-6.9c-0.9-2.7-3.5-4.9-6.6-4.9c-3.9,0-7.1,3.2-7.1,7.1
			S6.6,50,10.5,50c3.2,0,5.8-2,6.6-4.9h5.8l4.8,7.6c0.4,0.6,1.2,1,1.9,1h7.6V63H17.1c-1-2.9-3.6-4.9-6.6-4.9c-3.9,0-7.1,3.2-7.1,7.1
			s3.2,7.1,7.1,7.1c3.2,0,5.8-2,6.6-4.9h20.1v10h-7.6c-0.7,0-1.4,0.4-1.9,1L22.9,86h-5.8c-0.9-2.7-3.5-4.9-6.6-4.9
			c-3.9,0-7.1,3.2-7.1,7.1c0,3.9,3.2,7.1,7.1,7.1c3.2,0,5.8-2,6.6-4.9h7.1c0.7,0,1.4-0.4,1.9-1l4.8-7.6h6.5v5.2c0,2.5,2,4.5,4.5,4.5
			h24l-1,5.6c-0.1,0.7-0.7,1.3-1.6,1.3h-3.3c-0.9,0-1.6,0.7-1.6,1.6v1.6c0,0.9,0.7,1.6,1.6,1.6h24.2c0.9,0,1.6-0.7,1.6-1.6v-1.6
			c0-0.9-0.7-1.6-1.6-1.6h-3.3c-0.7,0-1.4-0.6-1.6-1.3l-0.9-5.6h24c2.5,0,4.5-2,4.5-4.5v-5.2h6.5l4.8,7.6c0.4,0.6,1.2,1,1.9,1h6.9
			c0.9,2.7,3.5,4.9,6.6,4.9c3.9,0,7.1-3.2,7.1-7.1c0-3.9-3.2-7.1-7.1-7.1c-3.2,0-5.8,2-6.6,4.9H121l-4.8-7.6c-0.4-0.6-1.2-1-1.9-1
			h-7.8v-10h20.2V67.2z M133.4,62.5c1.4,0,2.7,1.2,2.7,2.7c0,1.6-1.2,2.7-2.7,2.7c-1.4,0-2.7-1.2-2.7-2.7
			C130.7,63.6,132,62.5,133.4,62.5z M133.4,40.2c1.4,0,2.7,1.2,2.7,2.7c0,1.4-1.2,2.7-2.7,2.7c-1.4,0-2.7-1.2-2.7-2.7
			C130.8,41.4,132,40.2,133.4,40.2z M10.5,45.6c-1.4,0-2.7-1.2-2.7-2.7c0-1.4,1.2-2.7,2.7-2.7s2.7,1.2,2.7,2.7
			C13.1,44.4,11.9,45.6,10.5,45.6z M10.5,67.8c-1.4,0-2.7-1.2-2.7-2.7c0-1.6,1.2-2.6,2.7-2.6s2.7,1.2,2.7,2.7
			C13.2,66.8,11.9,67.8,10.5,67.8z M10.5,90.7c-1.4,0-2.7-1.2-2.7-2.7c0-1.4,1.2-2.7,2.7-2.7s2.7,1.2,2.7,2.7
			C13.1,89.6,11.9,90.7,10.5,90.7z M72,88.7c-1.2,0-2.2-1-2.2-2.2c0-1.2,1-2.2,2.2-2.2c1.2,0,2.2,1,2.2,2.2
			C74.1,87.7,73.1,88.7,72,88.7z M133.4,85.4c1.4,0,2.7,1.2,2.7,2.7c0,1.4-1.2,2.7-2.7,2.7c-1.4,0-2.7-1.2-2.7-2.7
			C130.8,86.5,132,85.4,133.4,85.4z"/>
		<path d="M70.9,59.7c0.7,0.4,1.4,0.4,2.2,0c6.1-4.2,14.4-11.8,14.4-20.5v-8.7c0-0.9-0.6-1.6-1.4-1.9c-5.3-1.4-9.7-3.8-13-6.3
			c-0.7-0.6-1.6-0.6-2.3,0c-3.3,2.5-7.5,4.8-13,6.3c-0.9,0.3-1.4,1-1.4,1.9v8.7C56.5,47.9,64.7,55.5,70.9,59.7z M64.2,39.1
			c0.9-0.9,2.5-0.9,3.3,0l2.6,2.6l6.5-6.5c0.9-0.9,2.5-0.9,3.3,0c0.9,0.9,0.9,2.5,0,3.3l-8.1,8.1c-0.4,0.4-1,0.7-1.7,0.7
			c-0.6,0-1.2-0.3-1.7-0.7l-4.2-4.2C63.2,41.5,63.2,40.1,64.2,39.1z"/>
	</g>
</g>
</svg>
