<?xml version="1.0" encoding="utf-8"?>
<!-- Generator: Adobe Illustrator 26.0.1, SVG Export Plug-In . SVG Version: 6.00 Build 0)  -->
<svg version="1.1" id="Layer_1" xmlns="http://www.w3.org/2000/svg" xmlns:xlink="http://www.w3.org/1999/xlink" x="0px" y="0px"
	 viewBox="0 0 80 80" style="enable-background:new 0 0 80 80;" xml:space="preserve">
<g>
	<path d="M65.9,14.1c-1.6-1.6-3.1-2.9-4.8-4.2c-0.4-0.3-0.8-0.1-1,0.1l-1.8,2.7c-0.3,0.4-0.1,0.8,0.1,1c4.5,3.2,8.3,7.8,10.8,13
		l-4.4,1.7L64,28.8c-0.4-0.8-0.8-1.4-1.2-2.2C58,18.7,49.3,13.4,39.4,13.4h-0.1V7.9l0,0c5.2,0,10,1.2,14.4,3.2
		c0.3,0.1,0.5,0,0.6-0.1l2.1-3.1c0.1-0.3,0.1-0.6-0.3-0.8C49.9,4,42.6,2.6,35.4,3.3C28.1,4.1,21.2,7,15.6,11.7
		C7.4,18.4,2.6,27.9,2,38.3c0,0.4,0.3,0.6,0.5,0.5l3.8-0.3c0.3,0,0.5-0.3,0.5-0.5c0.3-3.4,1-6.6,2.3-9.6l5.3,1.6
		c-1.6,3.2-2.3,6.9-2.3,10.7c0,5.2,1.4,10.1,4,14.3l-5.3,1.8c-2.2-4-3.8-8.4-4.2-13.3c0-0.4-0.4-0.6-0.6-0.5l-3.5,0.3
		c-0.4,0-0.6,0.4-0.6,0.6c0.8,8.8,4.5,17,10.9,23.4c0.6,0.6,1.3,1.3,1.9,1.8c0.3,0.1,0.5,0.1,0.8,0l2.5-2.7c0.3-0.3,0.1-0.5,0-0.8
		c-1.9-1.7-3.8-3.6-5.3-5.8l5.5-1.9c2.3,2.9,5.2,5.2,8.4,6.9c0.3,0.1,0.6,0,0.9-0.3l1.7-3c0.1-0.3,0.1-0.8-0.3-0.9
		c-0.6-0.3-1.2-0.6-1.7-1c-1.2-0.8-2.3-1.7-3.4-2.6c-3.9-3.8-6.5-8.8-6.9-14.6h5.3c0.4,3.9,2.1,7.4,4.7,10.1c0,0,0.1,0,0.3,0
		l2.7-3.6v-0.1c-1.7-2.1-2.9-4.5-3-7.4c-0.3-5.7,3.5-10.7,8.6-12.2c0.1,0,0.3-0.1,0.3-0.3v-4.3c0-0.1-0.1-0.3-0.4-0.3
		c-1.8,0.4-3.6,1.2-5.2,2.1l-4.3-3.5c1.3-0.9,2.7-1.8,4.2-2.5c0.1,0,0.1-0.1,0.1-0.3L28,16.3c0-0.1-0.1-0.1-0.3-0.1
		c-5.1,2.3-9.2,6.2-12.1,11l-5.3-1.7C15.5,16,24.8,9.3,35.9,8.2v5.6c-1.2,0.1-2.2,0.4-3.4,0.6c-0.3,0-0.3,0.3-0.3,0.5l2.2,3.8
		c0.1,0.1,0.3,0.1,0.4,0.1c1.4-0.3,3-0.4,4.5-0.4c2.6,0,5.2,0.5,7.5,1.3l-3,4.7c-1-0.3-2.2-0.5-3.4-0.5c-0.1,0-0.3,0.1-0.3,0.3v4.2
		c0,0.1,0.1,0.3,0.3,0.3c3.6,0.3,6.8,2.2,8.8,4.9c0.1,0.1,0.3,0.1,0.4,0.1l3.6-1.9c0.1-0.1,0.3-0.4,0.1-0.5
		c-1.6-2.3-3.9-4.3-6.4-5.7l3-4.5c3.5,1.8,6.4,4.7,8.4,8.1c0.8,1.2,1.4,2.5,1.9,3.9c0.1,0.4,0.4,0.9,0.5,1.4
		c0.1,0.3,0.4,0.5,0.8,0.5h3.4c0.5,0,0.9-0.5,0.8-0.9c-0.1-0.6-0.4-1.2-0.5-1.7l5.2-1.9c0.5,1.6,0.9,3,1.2,4.7
		c0.3,1.4,0.4,2.9,0.5,4.3c0,0.5,0,1.2,0,1.7c0,1,0,2.1-0.1,3c0,0.3,0.1,0.6,0.5,0.6l3.5,0.6c0.4,0.1,0.6-0.1,0.8-0.5
		c0.1-1.3,0.1-2.5,0.1-3.8C76.8,30.6,72.9,21.1,65.9,14.1z M23.6,24.8l4.2,3.5c-3,2.7-4.9,6.5-5.3,10.8h-5.3
		C17.4,33.5,19.8,28.4,23.6,24.8z M74.9,49.1L72,48.6c-0.5-0.1-0.9,0.3-1,0.6c-0.8,2.9-1.9,5.6-3.4,8.1l-4.8-2.7
		c2.5-4,3.9-8.8,3.9-13.9c0-0.4,0-0.6,0-1c0-0.4-0.3-0.6-0.6-0.6h-3.5c-0.4,0-0.6,0.3-0.6,0.6c0,0.4,0,0.6,0,1h-5.3
		c0-1.8-0.3-3.5-0.8-5.1c0-0.1-0.3-0.3-0.4-0.1l-3.8,1.9c-0.1,0-0.1,0.3-0.1,0.4c0.3,0.9,0.4,1.9,0.4,2.9c0,7-5.8,12.6-13,12.3
		c-1.8-0.1-3.5-0.6-5.1-1.4c-0.1-0.1-0.3,0-0.4,0.1l-2.6,3.4c-0.1,0.1-0.1,0.4,0.1,0.4c2.5,1.4,5.5,2.3,8.6,2.3c2.5,0,4.9-0.5,7-1.6
		l3,4.5c-3,1.6-6.4,2.3-10,2.3c-1.8,0-3.6-0.3-5.5-0.6c-0.1,0-0.4,0-0.5,0.3l-2.1,3.5c-0.1,0.3,0,0.5,0.3,0.6c2.5,0.8,4.9,1,7.7,1
		c0.4,0,0.9,0,1.3,0v5.5c-0.4,0-0.9,0-1.3,0c-6.2,0-12.1-1.8-17.2-4.8c-0.1-0.1-0.4-0.1-0.5,0.1l-2.6,2.9c-0.1,0.3-0.1,0.5,0.1,0.6
		c6,3.9,13,6,20.3,6c10,0,19.5-3.9,26.5-11c4.7-4.7,8.1-10.5,9.7-16.9C75.8,49.7,75.4,49.2,74.9,49.1z M49.3,54.5
		c3.5-2.5,6-6.2,6.8-10.5h5.5c-0.9,6.2-4.4,11.6-9.4,15.1L49.3,54.5z M43.9,73v-5.6c6.8-1.2,12.7-4.9,16.9-10.1l4.8,2.9
		C60.6,67,52.8,71.8,43.9,73z"/>
	<circle cx="39.4" cy="40.6" r="6.5"/>
</g>
</svg>
