<?xml version="1.0" encoding="utf-8"?>
<!-- Generator: Adobe Illustrator 26.0.1, SVG Export Plug-In . SVG Version: 6.00 Build 0)  -->
<svg version="1.1" id="Layer_1" xmlns="http://www.w3.org/2000/svg" xmlns:xlink="http://www.w3.org/1999/xlink" x="0px" y="0px"
	 viewBox="0 0 100 75" style="enable-background:new 0 0 100 75;" xml:space="preserve">
<path d="M11.7,25.3v3.2c0,3.4,2.7,6.1,6.1,6.1h5.6v-3.1h-5.6c-1.7,0-3-1.4-3-3v-3.3c1.5-0.6,2.5-2.1,2.5-3.7c0-2.2-1.8-4.1-4.1-4.1
	c-2.2,0-4.1,1.8-4.1,4.1C9.1,23.3,10.1,24.8,11.7,25.3z"/>
<path d="M17.8,53.6h5.6v-3.1h-5.6c-3.4,0-6.1,2.7-6.1,6.1v2.5c-1.5,0.6-2.6,2.1-2.6,3.8c0,2.2,1.8,4.1,4.1,4.1
	c2.2,0,4.1-1.8,4.1-4.1c0-1.7-1-3.1-2.5-3.7v-2.5C14.7,55,16.1,53.6,17.8,53.6z"/>
<path d="M9.1,46.8c1.7,0,3.2-1,3.8-2.5h10.5v-3.1H12.8c-0.6-1.5-2.1-2.5-3.8-2.5c-2.2,0-4.1,1.8-4.1,4.1C5,45,6.8,46.8,9.1,46.8z"/>
<path d="M88.3,28.6v-3.2c1.5-0.6,2.6-2.1,2.6-3.8c0-2.2-1.8-4.1-4.1-4.1c-2.2,0-4.1,1.8-4.1,4.1c0,1.7,1,3.1,2.5,3.7v3.3
	c0,1.7-1.4,3-3,3h-5.6v3.1h5.6C85.6,34.8,88.3,32,88.3,28.6z"/>
<path d="M85.3,56.7v2.5c-1.5,0.6-2.5,2.1-2.5,3.7c0,2.2,1.8,4.1,4.1,4.1c2.2,0,4.1-1.8,4.1-4.1c0-1.7-1.1-3.2-2.6-3.8v-2.5
	c0-3.4-2.7-6.1-6.1-6.1h-5.6v3.1h5.6C83.9,53.6,85.3,55,85.3,56.7z"/>
<path d="M90.9,38.6c-1.7,0-3.2,1-3.8,2.5H76.7v3.1h10.5c0.6,1.5,2.1,2.5,3.8,2.5c2.2,0,4.1-1.8,4.1-4.1C95,40.5,93.2,38.6,90.9,38.6
	z"/>
<path d="M30.9,61.5h38.2c2.3,0,4.1-1.8,4.1-4.1V31c0-2.3-1.8-4.1-4.1-4.1h-3.7v-7.4c0-8.5-6.9-15.4-15.4-15.4s-15.4,6.9-15.4,15.4
	v7.4h-3.7c-2.3,0-4.1,1.8-4.1,4.1v26.5C26.8,59.7,28.6,61.5,30.9,61.5z M54.1,52.1c0.2,0.6-0.3,1.3-1,1.3H47c-0.7,0-1.1-0.6-1-1.3
	l1.5-5.9c-1-0.8-1.6-2-1.6-3.3c0-2.3,1.9-4.2,4.2-4.2s4.2,1.9,4.2,4.2c0,1.4-0.6,2.6-1.6,3.3L54.1,52.1z M40.5,19.5
	c0-5.3,4.3-9.5,9.5-9.5l0,0c5.3,0,9.5,4.3,9.5,9.5v7.4h-19V19.5z"/>
</svg>
