<?xml version="1.0" encoding="utf-8"?>
<!-- Generator: Adobe Illustrator 26.0.1, SVG Export Plug-In . SVG Version: 6.00 Build 0)  -->
<svg version="1.1" id="youtube" xmlns="http://www.w3.org/2000/svg" xmlns:xlink="http://www.w3.org/1999/xlink" x="0px" y="0px"
	 viewBox="0 0 196 144" style="enable-background:new 0 0 196 144;" xml:space="preserve">
<style type="text/css">
	.st0{fill:#FFFFFF;}
</style>
<g>
	<path class="st0" d="M157,0H39C17.5,0,0,17.5,0,39.1v65.8C0,126.5,17.5,144,39,144h118c21.5,0,39-17.5,39-39.1V39.1
		C196,17.5,178.5,0,157,0z M188,104.9c0,17.1-13.9,31.1-31,31.1H39c-17.1,0-31-14-31-31.1V39.1C8,22,21.9,8,39,8h118
		c17.1,0,31,14,31,31.1V104.9z"/>
	<path class="st0" d="M133.4,70.6L78,38.1c-1.2-0.7-2.8-0.7-4,0c-1.2,0.7-2,2-2,3.5v64.9c0,1.4,0.8,2.8,2,3.5c0.6,0.4,1.3,0.5,2,0.5
		c0.7,0,1.4-0.2,2-0.5l55.4-32.5c1.2-0.7,2-2,2-3.5S134.7,71.3,133.4,70.6z M80,99.5v-51L123.5,74L80,99.5z"/>
</g>
</svg>
