<?xml version="1.0" encoding="utf-8"?>
<!-- Generator: Adobe Illustrator 26.0.1, SVG Export Plug-In . SVG Version: 6.00 Build 0)  -->
<svg version="1.1" id="Layer_1" xmlns="http://www.w3.org/2000/svg" xmlns:xlink="http://www.w3.org/1999/xlink" x="0px" y="0px"
	 viewBox="0 0 24 24" style="enable-background:new 0 0 24 24;" xml:space="preserve">
<style type="text/css">
	.st0{fill:#FFFFFF;}
</style>
<g>
	<g>
		<g>
			<path class="st0" d="M2.4,17.4L2.4,17.4c-0.2,0-0.4-0.1-0.4-0.3c-0.7-1.5-1.1-3.1-1.2-4.8V12v-0.3C0.8,10,1.2,8.4,2,6.9
				C2.4,6,3,5.2,3.6,4.4c2.2-2.5,5.4-4,8.7-4c2.8,0,5.4,1,7.6,2.9c0,0.2,0.1,0.3,0.1,0.4c0,0.1,0,0.3-0.1,0.4l-3.2,3.2
				c-0.2,0.2-0.5,0.2-0.7,0C14.9,6.5,13.6,6,12.2,6C11,6,9.7,6.4,8.7,7.1s-1.8,1.8-2.2,3c-0.2,0.5-0.3,1.1-0.3,1.6
				c0,0.1,0,0.2,0,0.3s0,0.2,0,0.2c0,0.6,0.1,1.1,0.3,1.6c0.1,0.2,0,0.4-0.2,0.6l-3.7,2.8C2.6,17.3,2.5,17.4,2.4,17.4z M12.2,1.5
				c-3.1,0-6,1.3-7.9,3.6C3.7,5.8,3.2,6.5,2.8,7.3c-0.7,1.4-1,2.8-1.1,4.4V12v0.3c0,1.3,0.3,2.6,0.8,3.8l2.9-2.2
				c-0.1-0.5-0.2-1-0.2-1.5c0-0.1,0-0.2,0-0.3s0-0.2,0-0.3c0-0.7,0.1-1.3,0.3-1.9C6,8.5,6.8,7.3,8,6.4c2.4-1.7,5.7-1.8,8.1-0.1
				l2.5-2.5C16.9,2.3,14.6,1.5,12.2,1.5z"/>
		</g>
		<g>
			<path class="st0" d="M12.2,23.5c-3.3,0-6.5-1.4-8.7-4c-0.7-0.8-1.2-1.6-1.6-2.4c-0.1-0.2,0-0.5,0.1-0.6l3.7-2.8
				c0.1-0.1,0.3-0.1,0.5-0.1s0.3,0.2,0.3,0.3c0.4,1.2,1.1,2.2,2.2,3c0.4,0.3,0.9,0.6,1.4,0.8c0.7,0.3,1.4,0.4,2.2,0.4
				c1.3,0,2.5-0.3,3.4-0.9s1.5-1.4,1.9-2.4h-5.3c-0.3,0-0.5-0.2-0.5-0.5V10c0-0.3,0.2-0.5,0.5-0.5h10.3c0.2,0,0.4,0.2,0.5,0.4
				c0.2,0.7,0.3,1.5,0.3,2.1c0,1.9-0.3,3.6-1,5.2c-0.6,1.3-1.4,2.5-2.5,3.5c-1.2,1.1-2.8,2-4.4,2.5C14.3,23.4,13.3,23.5,12.2,23.5z
				 M3,17c0.4,0.7,0.8,1.3,1.3,1.9c2,2.3,4.9,3.6,8,3.6c1,0,1.9-0.1,2.8-0.4c1.5-0.4,2.9-1.2,4-2.2c0.9-0.9,1.7-1.9,2.2-3.1
				c0.6-1.4,1-3,1-4.8c0-0.5-0.1-1-0.2-1.5h-9.4v3.3h5.4c0.2,0,0.3,0.1,0.4,0.2c0.1,0.1,0.1,0.3,0.1,0.4c-0.3,1.5-1.2,2.8-2.5,3.6
				c-1.1,0.7-2.4,1-3.9,1c-0.9,0-1.7-0.2-2.5-0.5c-0.6-0.2-1.1-0.5-1.6-0.9c-1-0.7-1.8-1.7-2.3-2.8L3,17z"/>
		</g>
	</g>
	<g>
		<path class="st0" d="M6.1,10.5c-0.1,0-0.2,0-0.3-0.1L2.1,7.5C1.8,7.4,1.8,7,2,6.8s0.5-0.3,0.7-0.1l3.7,2.8
			c0.2,0.2,0.3,0.5,0.1,0.7C6.4,10.4,6.2,10.5,6.1,10.5z"/>
	</g>
	<g>
		<path class="st0" d="M19.4,20.8c-0.1,0-0.2,0-0.3-0.1L15.6,18c-0.2-0.2-0.3-0.5-0.1-0.7s0.5-0.3,0.7-0.1l3.5,2.7
			c0.2,0.2,0.3,0.5,0.1,0.7C19.7,20.7,19.6,20.8,19.4,20.8z"/>
	</g>
	<g>
		<path class="st0" d="M19.5,14.8h-5.9c-0.3,0-0.5-0.2-0.5-0.5s0.2-0.5,0.5-0.5h5.9c0.3,0,0.5,0.2,0.5,0.5S19.8,14.8,19.5,14.8z"/>
	</g>
</g>
</svg>
