<?xml version="1.0" encoding="utf-8"?>
<!-- Generator: Adobe Illustrator 26.0.1, SVG Export Plug-In . SVG Version: 6.00 Build 0)  -->
<svg version="1.1" id="Layer_1" xmlns="http://www.w3.org/2000/svg" xmlns:xlink="http://www.w3.org/1999/xlink" x="0px" y="0px"
	 viewBox="0 0 128 128" style="enable-background:new 0 0 128 128;" xml:space="preserve">
<style type="text/css">
	.st0{fill:#FFFFFF;}
</style>
<path class="st0" d="M88.3,11.5c15.6,0,28.2,12.6,28.2,28.2v48.7c0,15.6-12.6,28.2-28.2,28.2H39.7c-15.6,0-28.2-12.6-28.2-28.2V39.7
	C11.5,24,24,11.5,39.7,11.5H88.3 M88.3,1.2H39.7C18.5,1.2,1.2,18.5,1.2,39.7v48.7c0,21.1,17.3,38.4,38.4,38.4h48.7
	c21.1,0,38.4-17.3,38.4-38.4V39.7C126.8,18.5,109.5,1.2,88.3,1.2z"/>
<path class="st0" d="M97.4,23c-4.1,0-7.3,3.3-7.3,7.3s3.3,7.3,7.3,7.3c4.1,0,7.3-3.3,7.3-7.3C104.9,26.3,101.5,23,97.4,23L97.4,23z"
	/>
<path class="st0" d="M64.4,41.6c12.4,0,22.7,10.1,22.7,22.6S76.9,86.8,64.4,86.8S41.7,76.7,41.7,64.1l0,0
	C41.7,51.7,51.8,41.6,64.4,41.6 M64.4,31.3c-18.2,0-32.9,14.7-32.8,32.9c0,18.2,14.7,32.9,32.9,32.8c18.1,0,32.8-14.7,32.8-32.9
	C97.3,46.1,82.6,31.3,64.4,31.3L64.4,31.3z"/>
</svg>
