<?xml version="1.0" encoding="utf-8"?>
<!-- Generator: Adobe Illustrator 26.0.1, SVG Export Plug-In . SVG Version: 6.00 Build 0)  -->
<svg version="1.1" id="Layer_1" xmlns="http://www.w3.org/2000/svg" xmlns:xlink="http://www.w3.org/1999/xlink" x="0px" y="0px"
	 viewBox="0 0 160 128" style="enable-background:new 0 0 160 128;" xml:space="preserve">
<style type="text/css">
	.st0{fill:#FFFFFF;}
</style>
<path class="st0" d="M108.7,22.2c6.6,0.1,12.9,2.9,17.4,7.7c0,0,9.5-1.9,14.8-5.6c0,0-1.4,7.3-10.1,12.9h0.1c0.6,0,5.6-0.1,13.3-3.7
	c0,0-1.5,4.2-11.6,12.2l0,0c0.6,19-8.8,54.1-43.6,66.6c-7.6,2.7-15.7,4.2-23.9,4.2c-13.1,0-25.8-3.7-36.7-10.8
	c1.9,0.2,3.6,0.2,5.2,0.2c20.5,0,30.5-10.6,30-10.6H63c-17.4,0-21.7-16.7-21.7-16.7c1.4,0.9,3,1.2,4.6,1.1c2.1,0,4.2-0.4,6.2-0.9
	c-19.7-4.6-18.9-23.5-18.9-23.5c2.6,1.7,5.7,2.7,9,2.9c0.5,0,1,0,1.6-0.1C25.9,44,36.7,27,36.7,27c20.3,23.5,45,24.3,48.5,24.3h0.4
	c-1.9-11.1,2.7-21.7,14.9-27.4C103.1,22.7,105.8,22.1,108.7,22.2 M132.7,45.7L132.7,45.7 M152.3,6.4l-16.1,11.3
	c-2.5,1.5-5.1,2.6-7.8,3.2c-5.6-4.4-12.6-6.8-19.7-6.8l0,0c-4,0-8,0.9-11.6,2.5c-11.4,5.4-18.4,14.7-19.8,25.8
	c-13.6-2.7-25.8-10.1-34.6-20.7l-7.1-8.2l-6,9.1c-3.7,6.2-5.2,13.6-4.2,20.8L25,55.2C24.9,62.6,27.4,70,32.1,76l1.2,4.9
	c1.7,6.2,5.4,11.8,10.5,16.1c-3.4,0.7-6.7,1.1-10.1,1.1c-1.5,0-3-0.1-4.6-0.2L0.6,95.4l23,16.9c12.3,8.1,26.8,12.4,41.4,12.3
	c9.1,0,18-1.6,26.6-4.7c17-6.1,31.2-18.5,39.4-34.7c5.7-11.1,9-23.3,9.5-35.7c8.2-7.1,10.5-11.6,11.1-13.3l6.3-18.2l-8.7,4.1
	L152.3,6.4z"/>
</svg>
