<?xml version="1.0" encoding="utf-8"?>
<!-- Generator: Adobe Illustrator 26.0.1, SVG Export Plug-In . SVG Version: 6.00 Build 0)  -->
<svg version="1.1" id="Layer_1" xmlns="http://www.w3.org/2000/svg" xmlns:xlink="http://www.w3.org/1999/xlink" x="0px" y="0px"
	 viewBox="0 0 128 128" style="enable-background:new 0 0 128 128;" xml:space="preserve">
<style type="text/css">
	.st0{fill:#FFFFFF;}
</style>
<path class="st0" d="M117.9,8.3c1,0,1.8,0.8,1.8,1.8c0,0,0,0,0,0v107.7c0,1-0.8,1.8-1.8,1.8h0H10.1c-1,0-1.8-0.8-1.8-1.8l0,0V10.1
	c0-1,0.8-1.8,1.8-1.8H117.9 M117.9,0H10.1C4.5,0,0,4.5,0,10.1l0,0v107.7c0,5.6,4.5,10.1,10.1,10.1h107.7c5.6,0,10.1-4.5,10.1-10.1v0
	V10.1C128,4.5,123.5,0,117.9,0C117.9,0,117.9,0,117.9,0L117.9,0z"/>
<rect x="29.8" y="46.6" class="st0" width="15" height="53.4"/>
<path class="st0" d="M80.9,46.6c-12.9,0-13.1,7.4-13.1,7.9v-7.9H52.5V100h15.4V69.5c0-2.4,0.7-7.5,8-7.5s7.2,7.3,7.2,7.3v30.7h15.2
	V66.8C98.2,51,89.6,46.6,80.9,46.6z"/>
<circle class="st0" cx="37.3" cy="35.5" r="7.5"/>
</svg>
